<svg width="21" height="21" viewBox="0 0 21 21" fill="none" xmlns="http://www.w3.org/2000/svg">
    <path
        d="M13.5005 19.263H16.2147C16.4758 19.2647 16.7346 19.2149 16.9764 19.1165C17.2181 19.0182 17.4382 18.8731 17.6239 18.6896C17.8095 18.5062 17.9573 18.2879 18.0586 18.0473C18.1599 17.8067 18.2128 17.5486 18.2142 17.2875V2.48703C18.2134 2.35646 18.1868 2.22735 18.1359 2.10707C18.0851 1.98679 18.0111 1.87771 17.9181 1.78604C17.8252 1.69438 17.715 1.62194 17.594 1.57287C17.473 1.52379 17.3436 1.49904 17.213 1.50003H15.3575C15.0941 1.49843 14.8408 1.6015 14.6533 1.78658C14.4658 1.97166 14.3595 2.2236 14.3577 2.48703V4.76253"
        stroke="#1B1C1F" stroke-width="1.5" stroke-linecap="round" stroke-linejoin="round" />
    <path
        d="M1.50146 9.11234L9.19946 2.60084C9.56371 2.29385 10.0247 2.12549 10.5011 2.12549C10.9774 2.12549 11.4385 2.29385 11.8027 2.60084L19.5015 9.11234"
        stroke="#1B1C1F" stroke-width="1.5" stroke-linecap="round" stroke-linejoin="round" />
    <path
        d="M1.77567 16.1187L2.43792 16.9759L2.58192 18.0424C2.62227 18.3321 2.75689 18.6004 2.96497 18.8059C3.17306 19.0114 3.44302 19.1427 3.73317 19.1794L4.81692 19.3227L5.68467 19.9782C5.9192 20.1545 6.20465 20.2498 6.49804 20.2498C6.79143 20.2498 7.07689 20.1545 7.31142 19.9782L8.18067 19.3227L9.26292 19.1809C9.55297 19.1444 9.82294 19.0134 10.0311 18.8082C10.2394 18.603 10.3742 18.3349 10.4149 18.0454L10.5597 16.9759C10.5597 16.9759 10.8957 16.5424 11.2234 16.1194C11.4019 15.8899 11.4988 15.6074 11.4988 15.3166C11.4988 15.0258 11.4019 14.7433 11.2234 14.5137L10.5597 13.6564L10.4157 12.5899C10.3755 12.2998 10.2408 12.031 10.0324 11.8251C9.82402 11.6193 9.55355 11.4879 9.26292 11.4514L8.17917 11.3082L7.31292 10.6534C7.07838 10.4772 6.79293 10.3818 6.49954 10.3818C6.20615 10.3818 5.9207 10.4772 5.68617 10.6534L4.81692 11.3089L3.73467 11.4507C3.44545 11.4883 3.17659 11.6199 2.96941 11.8252C2.76223 12.0304 2.6282 12.2981 2.58792 12.5869L2.43792 13.6564C2.43792 13.6564 2.10192 14.0899 1.77417 14.5129C1.59588 14.7427 1.49924 15.0253 1.49951 15.3161C1.49978 15.6069 1.59695 15.8893 1.77567 16.1187Z"
        fill="#4996FF" />
    <path
        d="M8.37451 14.875H7.12451V13.625C7.12451 13.4592 7.05866 13.3003 6.94145 13.1831C6.82424 13.0658 6.66527 13 6.49951 13C6.33375 13 6.17478 13.0658 6.05757 13.1831C5.94036 13.3003 5.87451 13.4592 5.87451 13.625L5.8967 14.875H4.62451C4.45875 14.875 4.29978 14.9408 4.18257 15.0581C4.06536 15.1753 3.99951 15.3342 3.99951 15.5C3.99951 15.6658 4.06536 15.8247 4.18257 15.9419C4.29978 16.0592 4.45875 16.125 4.62451 16.125L5.8967 16.1028L5.87451 17.375C5.87451 17.5408 5.94036 17.6997 6.05757 17.8169C6.17478 17.9342 6.33375 18 6.49951 18C6.66527 18 6.82424 17.9342 6.94145 17.8169C7.05866 17.6997 7.12451 17.5408 7.12451 17.375V16.1028L8.37451 16.125C8.54027 16.125 8.69924 16.0592 8.81645 15.9419C8.93366 15.8247 8.99951 15.6658 8.99951 15.5C8.99951 15.3342 8.93366 15.1753 8.81645 15.0581C8.69924 14.9408 8.54027 14.875 8.37451 14.875Z"
        fill="white" />
</svg>
    