<svg width="20" height="21" viewBox="0 0 20 21" fill="none" xmlns="http://www.w3.org/2000/svg">
    <path
        d="M13.0005 19.263H15.7147C15.9758 19.2647 16.2346 19.2149 16.4764 19.1165C16.7181 19.0182 16.9382 18.8731 17.1239 18.6896C17.3095 18.5062 17.4573 18.2879 17.5586 18.0473C17.6599 17.8067 17.7128 17.5486 17.7142 17.2875V2.48703C17.7134 2.35646 17.6868 2.22735 17.6359 2.10707C17.5851 1.98679 17.5111 1.87771 17.4181 1.78604C17.3252 1.69438 17.215 1.62194 17.094 1.57287C16.973 1.52379 16.8436 1.49904 16.713 1.50003H14.8575C14.5941 1.49843 14.3408 1.6015 14.1533 1.78658C13.9658 1.97166 13.8595 2.2236 13.8577 2.48703V4.76253"
        stroke="#1B1C1F" stroke-width="1.5" stroke-linecap="round" stroke-linejoin="round" />
    <path
        d="M1.00146 9.11234L8.69946 2.60084C9.06371 2.29385 9.52473 2.12549 10.0011 2.12549C10.4774 2.12549 10.9385 2.29385 11.3027 2.60084L19.0015 9.11234"
        stroke="#1B1C1F" stroke-width="1.5" stroke-linecap="round" stroke-linejoin="round" />
    <path
        d="M1.27567 16.1187L1.93792 16.9759L2.08192 18.0424C2.12227 18.3321 2.25689 18.6004 2.46497 18.8059C2.67306 19.0114 2.94302 19.1427 3.23317 19.1794L4.31692 19.3227L5.18467 19.9782C5.4192 20.1545 5.70465 20.2498 5.99804 20.2498C6.29143 20.2498 6.57689 20.1545 6.81142 19.9782L7.68067 19.3227L8.76292 19.1809C9.05297 19.1444 9.32294 19.0134 9.53115 18.8082C9.73936 18.603 9.87422 18.3349 9.91492 18.0454L10.0597 16.9759C10.0597 16.9759 10.3957 16.5424 10.7234 16.1194C10.9019 15.8899 10.9988 15.6074 10.9988 15.3166C10.9988 15.0258 10.9019 14.7433 10.7234 14.5137L10.0597 13.6564L9.91567 12.5899C9.87554 12.2998 9.74084 12.031 9.53243 11.8251C9.32402 11.6193 9.05355 11.4879 8.76292 11.4514L7.67917 11.3082L6.81292 10.6534C6.57838 10.4772 6.29293 10.3818 5.99954 10.3818C5.70615 10.3818 5.4207 10.4772 5.18617 10.6534L4.31692 11.3089L3.23467 11.4507C2.94545 11.4883 2.67659 11.6199 2.46941 11.8252C2.26223 12.0304 2.1282 12.2981 2.08792 12.5869L1.93792 13.6564C1.93792 13.6564 1.60192 14.0899 1.27417 14.5129C1.09588 14.7427 0.999241 15.0253 0.999512 15.3161C0.999784 15.6069 1.09695 15.8893 1.27567 16.1187Z"
        fill="#4996FF" />
    <path
        d="M7.49951 15H4.49951C4.3669 15 4.23973 15.0527 4.14596 15.1464C4.05219 15.2402 3.99951 15.3674 3.99951 15.5C3.99951 15.6326 4.05219 15.7598 4.14596 15.8536C4.23973 15.9473 4.3669 16 4.49951 16H7.49951C7.63212 16 7.7593 15.9473 7.85307 15.8536C7.94683 15.7598 7.99951 15.6326 7.99951 15.5C7.99951 15.3674 7.94683 15.2402 7.85307 15.1464C7.7593 15.0527 7.63212 15 7.49951 15Z"
        fill="white" />
</svg>
    