<svg width="42" height="43" viewBox="0 0 42 43" fill="none" xmlns="http://www.w3.org/2000/svg">
<path d="M27.667 40.473H33.698C34.2778 40.4769 34.8527 40.3666 35.3899 40.1483C35.9271 39.93 36.416 39.608 36.8287 39.2007C37.2414 38.7934 37.5698 38.3088 37.7951 37.7745C38.0205 37.2402 38.1383 36.6668 38.142 36.087V3.193C38.1399 2.90291 38.0807 2.61607 37.9677 2.34886C37.8548 2.08165 37.6903 1.83931 37.4837 1.63567C37.2771 1.43203 37.0324 1.27108 36.7636 1.16201C36.4948 1.05294 36.2071 0.997889 35.917 0.999997H31.794C31.2086 0.996537 30.6459 1.22555 30.2292 1.63673C29.8126 2.04792 29.5762 2.60765 29.572 3.193V8.25" stroke="#1B1C1F" stroke-width="1.5" stroke-linecap="round" stroke-linejoin="round"/>
<path d="M1.00101 17.917L18.107 3.44701C18.9164 2.7652 19.9407 2.3913 20.999 2.3913C22.0573 2.3913 23.0816 2.7652 23.891 3.44701L41 17.917" stroke="#1B1C1F" stroke-width="1.5" stroke-linecap="round" stroke-linejoin="round"/>
<path d="M1.61274 33.7498L3.08873 35.6498L3.40874 38.0208C3.49787 38.6648 3.79675 39.2616 4.25914 39.7188C4.72154 40.1759 5.32168 40.468 5.96674 40.5498L8.37573 40.8678L10.3047 42.3238C10.826 42.7156 11.4606 42.9275 12.1127 42.9275C12.7649 42.9275 13.3994 42.7156 13.9207 42.3238L15.8517 40.8688L18.2517 40.5498C18.8964 40.4686 19.4965 40.1775 19.9592 39.7213C20.4219 39.2651 20.7215 38.6692 20.8117 38.0258L21.1337 35.6488C21.1337 35.6488 21.8807 34.6858 22.6097 33.7488C23.0063 33.2386 23.2215 32.6109 23.2215 31.9648C23.2215 31.3186 23.0063 30.6909 22.6097 30.1808L21.1337 28.2748L20.8137 25.9038C20.724 25.2602 20.4248 24.6641 19.9625 24.2076C19.5002 23.751 18.9004 23.4594 18.2557 23.3778L15.8517 23.0598L13.9227 21.6038C13.4014 21.2119 12.7669 21 12.1147 21C11.4626 21 10.828 21.2119 10.3067 21.6038L8.37274 23.0598L5.97274 23.3758C5.32805 23.4569 4.72801 23.748 4.2653 24.2042C3.8026 24.6604 3.50299 25.2563 3.41273 25.8998L3.09073 28.2768C3.09073 28.2768 2.34374 29.2398 1.61474 30.1768C1.2167 30.6871 1.00036 31.3157 1 31.9629C0.999638 32.6101 1.21527 33.239 1.61274 33.7498Z" fill="#FF7401"/>
<path d="M10.4034 33.0618C10.758 32.6161 11.2702 32.2425 11.94 31.941C12.5376 31.6591 12.9842 31.4035 13.2665 31.1872C13.5489 30.9644 13.7328 30.6759 13.8247 30.3089C13.9232 29.9025 13.8707 29.5485 13.6605 29.2536C13.4504 28.9586 13.1089 28.7489 12.6295 28.6309C12.137 28.5129 11.7168 28.5653 11.3622 28.8013C11.0076 29.0373 10.7712 29.3781 10.6661 29.8173L8 29.1618C8.19044 28.4015 8.53847 27.7591 9.05724 27.2282C9.57602 26.6973 10.1933 26.3368 10.9156 26.1467C11.6445 25.95 12.4128 25.95 13.2271 26.1532C14.0939 26.3695 14.8031 26.7104 15.3416 27.1889C15.8866 27.6608 16.2478 28.2245 16.4317 28.88C16.6156 29.5354 16.6221 30.2237 16.4383 30.9512C16.1625 32.0786 15.4007 32.9307 14.1662 33.5076C13.4898 33.8287 13.0039 34.1368 12.7149 34.4252C12.4194 34.7202 12.2158 35.0872 12.1042 35.5395L9.57601 34.9168C9.77302 34.1237 10.0488 33.501 10.4034 33.0553V33.0618Z" fill="white"/>
<path d="M8.7486 39.0593C8.51876 38.6661 8.46623 38.2269 8.591 37.7353C8.71576 37.2437 8.9653 36.8766 9.35274 36.6276C9.74017 36.3785 10.167 36.3195 10.6333 36.4309C11.0995 36.5489 11.4475 36.8045 11.6774 37.1978C11.9006 37.5977 11.9532 38.0368 11.835 38.535C11.7102 39.0266 11.4607 39.3936 11.0732 39.6362C10.6858 39.8787 10.2655 39.9377 9.79271 39.8197C9.3199 39.7017 8.97187 39.4526 8.7486 39.0593Z" fill="white"/>
</svg>
