<svg width="21" height="21" viewBox="0 0 21 21" fill="none" xmlns="http://www.w3.org/2000/svg">
    <path d="M13.0664 20.2498V15.6313" stroke="#1B1C1F" stroke-width="1.5" stroke-linecap="round" stroke-linejoin="round"/>
    <path d="M19.2246 20.2498V15.6313" stroke="#1B1C1F" stroke-width="1.5" stroke-linecap="round" stroke-linejoin="round"/>
    <path d="M12.0396 20.25H20.2498" stroke="#1B1C1F" stroke-width="1.5" stroke-linecap="round" stroke-linejoin="round"/>
    <path d="M12.0396 13.7335V15.6325H20.2521V13.7335L16.1451 12.04L12.0396 13.7335Z" stroke="#1B1C1F" stroke-width="1.5" stroke-linecap="round" stroke-linejoin="round"/>
    <path d="M4.3423 14.6055C5.476 14.6055 6.39505 13.6865 6.39505 12.5528C6.39505 11.419 5.476 10.5 4.3423 10.5C3.2086 10.5 2.28955 11.419 2.28955 12.5528C2.28955 13.6865 3.2086 14.6055 4.3423 14.6055Z" stroke="#1B1C1F" stroke-width="1.5" stroke-linecap="round" stroke-linejoin="round"/>
    <path d="M5.77875 17.1714H2.9055C2.62241 17.1713 2.34207 17.227 2.08051 17.3353C1.81895 17.4436 1.58129 17.6023 1.38111 17.8025C1.18094 18.0027 1.02217 18.2403 0.913877 18.5019C0.805588 18.7635 0.749902 19.0438 0.75 19.3269V19.7371C0.75 19.8732 0.804048 20.0037 0.900254 20.0999C0.996461 20.1961 1.12694 20.2501 1.263 20.2501H7.42125C7.55731 20.2501 7.68779 20.1961 7.784 20.0999C7.8802 20.0037 7.93425 19.8732 7.93425 19.7371V19.3269C7.93435 19.0438 7.87866 18.7635 7.77037 18.5019C7.66208 18.2403 7.50332 18.0027 7.30314 17.8025C7.10296 17.6023 6.8653 17.4436 6.60374 17.3353C6.34218 17.227 6.06184 17.1713 5.77875 17.1714Z" stroke="#1B1C1F" stroke-width="1.5" stroke-linecap="round" stroke-linejoin="round"/>
    <path d="M13.203 7.93425L10.8247 9.87075C10.7494 9.93197 10.6582 9.97059 10.5619 9.98215C10.4655 9.9937 10.3678 9.97771 10.2801 9.93604C10.1925 9.89436 10.1184 9.8287 10.0665 9.74667C10.0146 9.66463 9.98704 9.56957 9.98695 9.4725V7.93425H8.96095C8.41653 7.93425 7.8944 7.71798 7.50944 7.33301C7.12447 6.94805 6.9082 6.42592 6.9082 5.8815V2.80275C6.9082 2.25833 7.12447 1.7362 7.50944 1.35124C7.8944 0.966271 8.41653 0.75 8.96095 0.75H15.1207C15.3903 0.749902 15.6573 0.80293 15.9064 0.906056C16.1555 1.00918 16.3818 1.16038 16.5724 1.35102C16.7631 1.54165 16.9143 1.76798 17.0174 2.01708C17.1205 2.26618 17.1736 2.53315 17.1735 2.80275V5.8815C17.1736 6.1511 17.1205 6.41807 17.0174 6.66717C16.9143 6.91627 16.7631 7.1426 16.5724 7.33323C16.3818 7.52387 16.1555 7.67507 15.9064 7.77819C15.6573 7.88132 15.3903 7.93435 15.1207 7.93425H13.203Z" fill="#FF7401" stroke="#FF7401" stroke-width="1.5" stroke-linecap="round" stroke-linejoin="round"/>
    </svg>
    