<svg width="61" height="62" viewBox="0 0 61 62" fill="none" xmlns="http://www.w3.org/2000/svg">
    <path
        d="M60.4916 31C60.4916 14.436 47.0639 1.0083 30.5 1.0083C13.936 1.0083 0.508301 14.436 0.508301 31C0.508301 47.5639 13.936 60.9916 30.5 60.9916C47.0639 60.9916 60.4916 47.5639 60.4916 31Z"
        stroke="#E8EAED" />
    <path
        d="M34.5703 42.8786H38.2496C38.6035 42.8809 38.9543 42.8134 39.282 42.68C39.6098 42.5466 39.9081 42.35 40.1598 42.1013C40.4115 41.8526 40.6117 41.5567 40.749 41.2306C40.8864 40.9045 40.9581 40.5545 40.9601 40.2007V20.1378C40.9589 19.9608 40.9228 19.7858 40.8539 19.6227C40.7851 19.4597 40.6847 19.3118 40.5587 19.1876C40.4326 19.0633 40.2833 18.9651 40.1193 18.8986C39.9553 18.8321 39.7798 18.7985 39.6028 18.7998H37.0876C36.7305 18.7977 36.3871 18.9374 36.133 19.1883C35.8789 19.4392 35.7348 19.7807 35.7324 20.1378V23.2223"
        stroke="#1B1C1F" stroke-width="1.5" stroke-linecap="round" stroke-linejoin="round" />
    <path
        d="M18.3042 29.119L28.7393 20.2923C29.233 19.8762 29.858 19.6479 30.5037 19.6479C31.1494 19.6479 31.7744 19.8762 32.2681 20.2923L42.7042 29.119"
        stroke="#1B1C1F" stroke-width="1.5" stroke-linecap="round" stroke-linejoin="round" />
    <path
        d="M18.6756 38.6165L19.5733 39.7785L19.7685 41.2242C19.8232 41.6169 20.0057 41.9806 20.2878 42.2591C20.5699 42.5377 20.9358 42.7157 21.3291 42.7655L22.7982 42.9597L23.9745 43.8482C24.2924 44.0872 24.6793 44.2164 25.0771 44.2164C25.4748 44.2164 25.8617 44.0872 26.1796 43.8482L27.3579 42.9597L28.825 42.7675C29.2182 42.718 29.5841 42.5405 29.8664 42.2623C30.1486 41.9841 30.3314 41.6207 30.3866 41.2283L30.5828 39.7785C30.5828 39.7785 31.0383 39.1909 31.4826 38.6175C31.7245 38.3063 31.8559 37.9233 31.8559 37.5291C31.8559 37.1349 31.7245 36.752 31.4826 36.4408L30.5828 35.2787L30.3876 33.833C30.3332 33.4397 30.1506 33.0753 29.8681 32.7963C29.5856 32.5173 29.219 32.3392 28.825 32.2897L27.3559 32.0956L26.1817 31.208C25.8637 30.969 25.4768 30.8398 25.0791 30.8398C24.6814 30.8398 24.2944 30.969 23.9765 31.208L22.7982 32.0966L21.3311 32.2887C20.9391 32.3397 20.5746 32.5181 20.2938 32.7963C20.013 33.0746 19.8313 33.4374 19.7767 33.829L19.5733 35.2787C19.5733 35.2787 19.1179 35.8664 18.6736 36.4398C18.4319 36.7512 18.3009 37.1343 18.3013 37.5285C18.3016 37.9227 18.4334 38.3055 18.6756 38.6165Z"
        fill="#4996FF" />
    <path
        d="M27.621 36.9303H25.9265V35.2359C25.9265 35.0112 25.8373 34.7957 25.6784 34.6368C25.5195 34.4779 25.304 34.3887 25.0793 34.3887C24.8546 34.3887 24.6391 34.4779 24.4802 34.6368C24.3214 34.7957 24.2321 35.0112 24.2321 35.2359L24.2622 36.9303H22.5377C22.313 36.9303 22.0975 37.0196 21.9386 37.1785C21.7797 37.3374 21.6904 37.5529 21.6904 37.7776C21.6904 38.0023 21.7797 38.2178 21.9386 38.3766C22.0975 38.5355 22.313 38.6248 22.5377 38.6248L24.2622 38.5947L24.2321 40.3192C24.2321 40.5439 24.3214 40.7594 24.4802 40.9183C24.6391 41.0772 24.8546 41.1664 25.0793 41.1664C25.304 41.1664 25.5195 41.0772 25.6784 40.9183C25.8373 40.7594 25.9265 40.5439 25.9265 40.3192V38.5947L27.621 38.6248C27.8457 38.6248 28.0612 38.5355 28.2201 38.3766C28.3789 38.2178 28.4682 38.0023 28.4682 37.7776C28.4682 37.5529 28.3789 37.3374 28.2201 37.1785C28.0612 37.0196 27.8457 36.9303 27.621 36.9303Z"
        fill="white" />
</svg>
    