<svg width="60" height="60" viewBox="0 0 60 60" fill="none" xmlns="http://www.w3.org/2000/svg">
    <path d="M59.5 30C59.5 13.7076 46.2924 0.5 30 0.5C13.7076 0.5 0.5 13.7076 0.5 30C0.5 46.2924 13.7076 59.5 30 59.5C46.2924 59.5 59.5 46.2924 59.5 30Z" stroke="#E8EAED"/>
    <path d="M33.421 43V36.842" stroke="#1B1C1F" stroke-width="1.5" stroke-linecap="round" stroke-linejoin="round"/>
    <path d="M41.632 43V36.842" stroke="#1B1C1F" stroke-width="1.5" stroke-linecap="round" stroke-linejoin="round"/>
    <path d="M32.053 43H43" stroke="#1B1C1F" stroke-width="1.5" stroke-linecap="round" stroke-linejoin="round"/>
    <path d="M32.053 34.311V36.843H43.003V34.311L37.527 32.053L32.053 34.311Z" stroke="#1B1C1F" stroke-width="1.5" stroke-linecap="round" stroke-linejoin="round"/>
    <path d="M21.79 35.474C23.3016 35.474 24.527 34.2486 24.527 32.737C24.527 31.2254 23.3016 30 21.79 30C20.2784 30 19.053 31.2254 19.053 32.737C19.053 34.2486 20.2784 35.474 21.79 35.474Z" stroke="#1B1C1F" stroke-width="1.5" stroke-linecap="round" stroke-linejoin="round"/>
    <path d="M23.705 38.895H19.874C19.4965 38.8949 19.1228 38.9691 18.774 39.1135C18.4253 39.2579 18.1084 39.4696 17.8415 39.7365C17.5746 40.0034 17.3629 40.3203 17.2185 40.669C17.0741 41.0178 16.9999 41.3916 17 41.769V42.316C17 42.4974 17.0721 42.6714 17.2003 42.7997C17.3286 42.928 17.5026 43 17.684 43H25.895C26.0764 43 26.2504 42.928 26.3787 42.7997C26.5069 42.6714 26.579 42.4974 26.579 42.316V41.769C26.5791 41.3916 26.5049 41.0178 26.3605 40.669C26.2161 40.3203 26.0044 40.0034 25.7375 39.7365C25.4706 39.4696 25.1537 39.2579 24.805 39.1135C24.4562 38.9691 24.0825 38.8949 23.705 38.895Z" stroke="#1B1C1F" stroke-width="1.5" stroke-linecap="round" stroke-linejoin="round"/>
    <path d="M33.604 26.579L30.433 29.161C30.3326 29.2426 30.211 29.2941 30.0825 29.3095C29.954 29.3249 29.8238 29.3036 29.7069 29.2481C29.59 29.1925 29.4913 29.1049 29.4221 28.9956C29.3529 28.8862 29.3161 28.7594 29.316 28.63V26.579H27.948C27.2221 26.579 26.5259 26.2906 26.0126 25.7774C25.4994 25.2641 25.211 24.5679 25.211 23.842V19.737C25.211 19.0111 25.4994 18.3149 26.0126 17.8016C26.5259 17.2884 27.2221 17 27.948 17H36.161C36.5205 16.9999 36.8764 17.0706 37.2086 17.2081C37.5407 17.3456 37.8425 17.5472 38.0966 17.8014C38.3508 18.0555 38.5524 18.3573 38.6899 18.6894C38.8274 19.0216 38.8981 19.3775 38.898 19.737V23.842C38.8981 24.2015 38.8274 24.5574 38.6899 24.8896C38.5524 25.2217 38.3508 25.5235 38.0966 25.7776C37.8425 26.0318 37.5407 26.2334 37.2086 26.3709C36.8764 26.5084 36.5205 26.5791 36.161 26.579H33.604Z" fill="#2F87FF" stroke="#2F87FF" stroke-width="1.5" stroke-linecap="round" stroke-linejoin="round"/>
    </svg>
    