<svg width="61" height="61" viewBox="0 0 61 61" fill="none" xmlns="http://www.w3.org/2000/svg">
    <path
        d="M60.4911 30.5C60.4911 13.936 47.0634 0.508301 30.4995 0.508301C13.9355 0.508301 0.507812 13.936 0.507812 30.5C0.507812 47.0639 13.9355 60.4916 30.4995 60.4916C47.0634 60.4916 60.4911 47.0639 60.4911 30.5Z"
        stroke="#E8EAED" />
    <path
        d="M34.5684 42.3786H38.2477C38.6015 42.3809 38.9523 42.3134 39.2801 42.18C39.6078 42.0466 39.9061 41.85 40.1578 41.6013C40.4095 41.3526 40.6098 41.0567 40.7471 40.7306C40.8844 40.4045 40.9561 40.0545 40.9581 39.7007V19.6378C40.9569 19.4608 40.9208 19.2858 40.852 19.1227C40.7831 18.9597 40.6828 18.8118 40.5567 18.6876C40.4307 18.5633 40.2814 18.4651 40.1174 18.3986C39.9534 18.3321 39.7778 18.2985 39.6009 18.2998H37.0856C36.7285 18.2977 36.3852 18.4374 36.1311 18.6883C35.8769 18.9392 35.7328 19.2807 35.7304 19.6378V22.7223"
        stroke="#1B1C1F" stroke-width="1.5" stroke-linecap="round" stroke-linejoin="round" />
    <path
        d="M18.3008 28.619L28.7358 19.7923C29.2296 19.3762 29.8545 19.1479 30.5003 19.1479C31.146 19.1479 31.7709 19.3762 32.2647 19.7923L42.7008 28.619"
        stroke="#1B1C1F" stroke-width="1.5" stroke-linecap="round" stroke-linejoin="round" />
    <path
        d="M18.6732 38.1165L19.5709 39.2785L19.7661 40.7242C19.8208 41.1169 20.0033 41.4806 20.2853 41.7591C20.5674 42.0377 20.9334 42.2157 21.3267 42.2655L22.7958 42.4597L23.972 43.3482C24.29 43.5872 24.6769 43.7164 25.0746 43.7164C25.4723 43.7164 25.8593 43.5872 26.1772 43.3482L27.3555 42.4597L28.8226 42.2675C29.2157 42.218 29.5817 42.0405 29.8639 41.7623C30.1462 41.4841 30.329 41.1207 30.3842 40.7283L30.5804 39.2785C30.5804 39.2785 31.0358 38.6909 31.4801 38.1175C31.7221 37.8063 31.8534 37.4233 31.8534 37.0291C31.8534 36.6349 31.7221 36.252 31.4801 35.9408L30.5804 34.7787L30.3852 33.333C30.3308 32.9397 30.1482 32.5753 29.8657 32.2963C29.5832 32.0173 29.2165 31.8392 28.8226 31.7897L27.3535 31.5956L26.1792 30.708C25.8613 30.469 25.4744 30.3398 25.0766 30.3398C24.6789 30.3398 24.292 30.469 23.9741 30.708L22.7958 31.5966L21.3287 31.7887C20.9367 31.8397 20.5722 32.0181 20.2914 32.2963C20.0105 32.5746 19.8288 32.9374 19.7742 33.329L19.5709 34.7787C19.5709 34.7787 19.1154 35.3664 18.6711 35.9398C18.4295 36.2512 18.2985 36.6343 18.2988 37.0285C18.2992 37.4227 18.4309 37.8055 18.6732 38.1165Z"
        fill="#4996FF" />
    <path
        d="M27.1097 36.6001H23.043C22.8633 36.6001 22.6909 36.6715 22.5638 36.7986C22.4366 36.9257 22.3652 37.0981 22.3652 37.2779C22.3652 37.4576 22.4366 37.63 22.5638 37.7571C22.6909 37.8842 22.8633 37.9557 23.043 37.9557H27.1097C27.2894 37.9557 27.4618 37.8842 27.5889 37.7571C27.716 37.63 27.7875 37.4576 27.7875 37.2779C27.7875 37.0981 27.716 36.9257 27.5889 36.7986C27.4618 36.6715 27.2894 36.6001 27.1097 36.6001Z"
        fill="white" />
</svg>
    