<svg width="100" height="100" viewBox="0 0 100 100" fill="none" xmlns="http://www.w3.org/2000/svg">
    <path d="M99.5 50C99.5 22.6619 77.3381 0.5 50 0.5C22.6619 0.5 0.5 22.6619 0.5 50C0.5 77.3381 22.6619 99.5 50 99.5C77.3381 99.5 99.5 77.3381 99.5 50Z" stroke="#E8EAED"/>
    <rect x="23" y="23" width="55" height="55" rx="27.5" fill="#2F87FF"/>
    <path d="M52.98 56.94C53.24 56.94 53.53 56.89 53.85 56.79C54.17 56.69 54.51 56.54 54.87 56.34L55.89 58.89C55.49 59.29 54.9 59.64 54.12 59.94C53.34 60.24 52.54 60.39 51.72 60.39C50.24 60.39 49.21 60.04 48.63 59.34C48.05 58.62 47.76 57.63 47.76 56.37V48.51H46.2V45.18H52.14V55.95C52.14 56.33 52.21 56.59 52.35 56.73C52.49 56.87 52.7 56.94 52.98 56.94ZM52.14 42.63H47.46V38.34H52.14V42.63Z" fill="#FBFCFE"/>
    </svg>
    