<svg width="260" height="140" viewBox="0 0 300 155" fill="none" xmlns="http://www.w3.org/2000/svg">
    <path d="M299.841 84.5252C300.703 88.599 298.049 88.6919 294.626 90.6425C259.209 110.812 216.547 133.291 179.777 150.767C176.579 152.28 172.492 154.96 168.975 154.363L2.62715 70.8442C1.00825 69.1192 -0.69026 68.4424 0.291693 65.8018L2.26887 67.6064L170.05 151.497L172.571 151.139L299.841 84.5252Z" fill="#9DC9DF"/>
    <path d="M299.841 85.6953L172.572 152.309L170.051 152.667L2.26966 68.7633L0.29248 66.9586C1.03558 64.9283 2.48197 65.4326 3.71605 64.0791C46.3647 43.0732 88.2038 20.3291 131.158 0L298.581 83.5324C300.027 84.5143 299.682 84.9522 299.841 85.6953Z" fill="#C2E5F4"/>
    <path d="M178.504 38.1634C178.597 38.0307 178.77 37.0621 179.221 36.7171C195.887 43.5376 215.5 50.2786 231.424 57.9617C235.71 60.0318 239.465 62.7654 243.3 65.5254C241.721 65.6714 241.217 66.0828 241.495 67.6884C218.048 64.0392 188.801 45.7802 165.341 38.88C164.664 38.681 163.125 38.8535 162.275 38.5217C161.294 37.6857 160.298 37.845 160.471 35.828C160.511 35.3901 162.023 32.8821 162.448 32.7627C163.483 32.4973 175.558 40.0477 178.65 38.88C179.407 38.6013 178.451 38.19 178.464 38.1634H178.504Z" fill="#F9D4D8"/>
    <path d="M169.866 141.494L277.151 85.6815C278.305 85.1374 281.556 82.3375 282.366 84.2351L171.113 142.197C169.932 142.303 169.919 141.494 169.853 141.48L169.866 141.494Z" fill="#9DC9DF"/>
    <path d="M241.508 67.6885C242.078 67.7814 242.729 67.6222 243.312 67.6885L249.788 70.7538C249.39 71.3377 249.138 71.2714 248.527 71.2979C239.332 71.7225 191.441 51.9773 180.122 47.1737C175.929 45.3956 165.38 41.1493 162.301 38.5352C163.151 38.8669 164.677 38.6944 165.367 38.8934C188.827 45.7936 218.074 64.0394 241.521 67.7018L241.508 67.6885Z" fill="#CCCBC6"/>
    <path d="M231.436 57.9614C215.513 50.2783 195.887 43.5506 179.233 36.7168C175.73 35.2836 169.626 31.7672 166.455 30.9577C165.327 30.6658 163.628 30.1085 162.673 31.1435L178.517 38.1631C178.517 38.1631 179.459 38.601 178.703 38.8797C175.611 40.0342 163.535 32.497 162.5 32.7624C162.076 32.8686 160.563 35.3898 160.523 35.8277C160.351 37.8447 161.333 37.6854 162.328 38.5214C165.406 41.1355 175.956 45.3818 180.149 47.16C191.468 51.9636 239.358 71.7088 248.554 71.2842C249.164 71.2576 249.417 71.324 249.815 70.7401L243.339 67.6748C244.852 67.8606 246.205 68.1791 247.665 68.5772C247.917 68.1127 244.202 65.5782 243.711 65.5119C242.901 63.2428 245.091 65.6313 246.046 65.1536L280.614 82.4307L277.19 85.6684L169.905 141.481C165.579 140.366 161.903 136.982 157.485 136.08L16.123 64.9811L128.636 7.20508L131.516 7.92164L231.423 57.9614H231.436Z" fill="#FEFEFE"/>
    <path d="M243.671 65.5254C244.162 65.5785 247.877 68.1262 247.625 68.5907C246.165 68.1926 244.812 67.8741 243.299 67.6883C242.729 67.622 242.065 67.7812 241.495 67.6883C241.203 66.0827 241.72 65.6714 243.299 65.5254C243.405 65.5254 243.551 65.5254 243.657 65.5254H243.671Z" fill="#E8D7AC"/>
    <path d="M179.221 36.7302C178.769 37.062 178.597 38.0439 178.504 38.1766L162.66 31.157C163.616 30.1219 165.314 30.6925 166.442 30.9712C169.613 31.7806 175.717 35.2971 179.221 36.7302Z" fill="#E8D7AC"/>
    <path d="M125.398 24.8408C126.035 24.6418 126.301 25.1991 126.845 25.1991C127.628 25.836 125.093 27.2559 124.323 27.7203C104.538 39.7161 80.5469 48.3015 60.6027 60.4831C59.2093 60.8413 59.7136 60.6423 58.6255 59.939L125.412 24.8408H125.398Z" fill="#C2E5F4"/>
    <path d="M115.314 25.5576C115.977 25.5576 116.388 25.7699 116.932 26.1017L61.3061 55.0826L58.9707 55.2683C58.1745 54.2864 65.5524 51.3671 65.9903 51.1282C71.4707 48.1027 112.461 25.5178 115.314 25.5709V25.5576Z" fill="#C2E5F4"/>
    <path d="M199.921 93.6035C203.464 99.2829 197.904 98.009 196.856 98.8185C196.245 99.2962 196.882 102.401 195.595 102.959C195.184 103.144 193.751 102.773 193.432 102.959C191.933 103.834 191.614 106.608 189.836 107.285C188.058 107.961 187.116 106.886 186.956 106.926C185.709 107.285 184.727 112.194 181.914 110.164L175.797 116.281C171.418 113.535 170.449 120.169 168.061 122.226C167.742 122.492 166.641 123.434 166.256 122.584C167.649 121.231 171.205 115.047 172.559 114.49C174.191 113.813 174.616 115.206 175.797 114.848C176.089 114.755 177.814 111.982 178.676 111.252C178.835 111.119 179.725 111.451 180.295 111.066C180.388 111 180.959 109.182 181.197 109.089C181.755 108.864 183.241 109.819 183.36 109.806C183.772 109.753 185.789 106.316 187.686 105.851C188.469 105.652 189.385 106.581 189.491 106.568C190.712 106.422 191.734 103.065 193.087 102.242C193.392 102.056 194.839 102.428 195.25 102.242C196.046 101.897 195.821 98.5796 196.511 98.1019C198.05 97.0271 201.633 99.6943 199.934 93.6035H199.921Z" fill="#356A9D"/>
    <path d="M149.164 108.731C153.052 107.908 158.028 109.779 160.509 112.871C163.827 117.011 166.215 128.715 157.63 127.269C167.874 126.313 161.478 111.995 154.936 110.164C141.998 106.555 143.551 121.735 154.578 124.204C155.852 124.482 157.961 123.726 159.076 124.389C150.371 129.193 138.389 111.014 149.177 108.731H149.164Z" fill="#356A9D"/>
    <path d="M151.327 104.406C160.576 103.517 169.931 112.673 165.366 122.041C164.371 120.396 165.711 118.325 165.552 116.454C165.047 110.802 158.28 106.224 153.131 105.109L149.894 105.467L151.34 104.392L151.327 104.406Z" fill="#356A9D"/>
    <path d="M150.597 112.327C155.069 111.359 159.196 117.038 160.138 120.793L159.952 123.129C159.501 119.984 157.02 114.543 153.835 113.402C147.253 111.053 147.134 119.506 153.835 121.682C154.989 122.054 157.763 121.523 158.692 122.585C154.14 123.314 147.001 120.17 148.249 114.663C148.394 114.039 149.96 112.46 150.584 112.327H150.597Z" fill="#356A9D"/>
    </svg>
    