<svg width="260" height="130" viewBox="0 0 300 148" fill="none" xmlns="http://www.w3.org/2000/svg">
    <path d="M256.098 144.596C256.18 144.614 257.326 144.568 257.755 144.596C260.755 144.781 263.854 144.559 266.863 144.596C277.398 144.725 287.941 144.503 298.475 144.596C299.786 145.798 300.215 146.566 298.748 148H1.64914C0.462135 146.973 0.783616 145.512 1.92117 144.596C10.156 144.568 18.3992 144.633 26.634 144.596C29.1976 144.587 31.9014 144.596 34.6381 144.596C57.183 144.531 79.7444 144.605 102.289 144.596C115.907 144.596 129.541 144.587 143.159 144.596C163.676 144.614 184.218 144.55 204.735 144.596C218.023 144.624 231.632 144.753 244.5 144.291C245.563 144.254 252.042 145.123 252.504 144.448L244.5 137.473C244.5 136.234 244.5 134.994 244.5 133.755C246.016 135.771 253.625 137.89 254.581 139.333C255.537 140.776 253.485 144.032 256.098 144.596Z" fill="#82B3AB"/>
    <path d="M167.731 10.1195C165.654 13.4958 162.019 11.2573 163.041 17.242C163.321 18.8978 163.89 19.1013 165.25 19.4065C165.25 19.61 165.522 19.943 165.522 20.646L122.724 20.9513H121.619L120.655 21.2565C107.556 36.3525 93.7408 50.6993 81.0299 66.1838C78.5323 66.0728 74.9795 66.6648 72.7456 66.489C72.6879 66.489 71.9048 65.8785 71.7812 65.8693C70.8002 65.7675 68.5911 66.119 67.9151 65.8693C66.7776 65.4438 66.5303 60.1713 64.8817 59.3665C64.6014 60.6893 66.3902 61.457 64.8817 63.085C64.8817 61.4755 64.8322 62.0305 64.4695 61.5403C62.3263 58.608 59.9111 61.3553 61.9883 64.0193C59.0373 63.9453 60.4139 58.7283 63.3649 59.2185C63.0022 57.1835 60.2326 59.385 59.7792 60.1435C59.128 61.2165 58.6828 65.4808 57.7102 65.8785C56.6715 66.304 54.0255 65.1385 53.432 66.4983C49.228 67.2383 38.7675 65.2958 35.3466 66.4983C33.6155 67.1088 34.6624 71.5765 34.6542 73.3155C32.9149 71.9188 32.3626 68.4778 29.9638 68.82L30.7881 95.6265C29.4363 93.9523 27.4744 91.1403 25.6774 90.6685C25.018 91.0293 23.122 102.795 23.0561 104.303C10.6667 72.1315 26.477 29.0358 52.7313 11.9788C79.1835 -5.20771 113.425 -0.453206 142.194 5.16154C149.58 6.60454 160.535 10.915 167.739 10.1195H167.731Z" fill="#D6ECE2"/>
    <path d="M65.4338 16.317C69.5224 16.058 72.7207 18.3335 75.5151 21.4322C75.9602 21.9225 77.6666 24.975 77.8644 24.9935C78.2848 25.0397 79.3152 21.7282 82.0024 23.4487C83.3461 24.309 83.9396 27.38 84.2116 27.4725C84.5908 27.602 91.9354 27.0747 90.4269 30.7285C89.4789 33.0132 50.5879 29.9422 45.5596 31.191C42.2294 26.1035 48.8157 28.564 49.1454 28.4067C49.7883 28.1107 50.151 22.274 54.388 28.1015C55.8553 22.0797 59.4575 16.7147 65.4338 16.3262V16.317Z" fill="white"/>
    <path d="M121.619 20.9609L122.312 21.8859L83.2394 66.5079C82.4728 66.4524 81.7969 66.2304 81.0303 66.2027C93.7412 50.7089 107.557 36.3714 120.655 21.2754L121.619 20.9702V20.9609Z" fill="white"/>
    <path d="M283.431 103.692C281.824 104.58 279.969 105.7 278.461 106.791C278.65 102.305 279.837 97.5411 279.285 92.9993C279.12 91.6673 278.931 89.2438 277.216 89.7433C276.59 89.9283 268.264 99.1783 267.967 99.8166C266.929 102.018 267.588 105.468 266.038 107.096C265.939 106.662 265.873 106.292 265.766 105.857C265.7 105.598 265.56 105.496 265.494 105.237C265.395 104.876 265.329 104.349 265.222 103.998C265.123 103.692 265.057 103.378 264.95 103.073C264.472 101.694 263.12 98.3921 262.469 97.1896L262.197 82.7781C261.587 82.1213 257.367 86.7833 256.954 87.5788C256.93 87.3846 256.938 87.1533 256.954 86.9591C257.136 84.4338 261.966 82.1213 262.197 81.5386C262.387 81.0576 261.727 77.3113 261.645 76.4233C261.092 70.3923 259.535 64.5648 258.611 58.6078L257.367 58.1453L242.867 81.6958C241.292 81.4831 237.245 82.2601 235.415 82.3156C234.08 80.2621 231.467 81.5848 230.585 81.0761C229.892 80.6783 229.348 75.7851 225.474 75.4983L225.202 71.7798C213.488 57.9511 201.651 44.1593 189.583 30.7283C187.44 28.3418 182.115 21.5801 179.922 20.6551C179.906 19.4711 179.659 19.6653 180.615 19.4156C183.467 18.6571 200.069 18.4813 204.083 18.4906C222.671 18.4906 241.02 25.1968 255.998 37.3883C275.238 53.0671 284.206 77.1541 283.473 103.692H283.431Z" fill="#D6ECE2"/>
    <path d="M227.519 26.5379C233.338 26.2049 236.899 31.3201 238.284 37.0736C241.779 31.4311 242.414 36.7684 242.974 37.0736C243.139 37.1661 245.043 35.7509 246.56 36.7684C247.162 37.1661 247.335 38.1744 246.972 38.7849C245.925 40.5609 213.324 38.3964 209.005 39.2474C207.537 35.4364 211.758 36.3151 212.871 35.8434C213.34 35.6399 213.728 33.2811 214.799 32.7446C216.885 31.7086 217.371 34.1044 218.113 33.9841C218.451 33.9286 221.345 29.3776 222.804 28.4064C223.842 27.7126 226.34 26.6119 227.494 26.5471L227.519 26.5379Z" fill="white"/>
    <path d="M278.46 106.791C277.603 107.411 276.342 108.299 275.559 108.956C274.652 109.724 274.529 110.834 273.902 111.435C273.778 111.555 273.844 110.602 273.49 110.972C272.278 112.193 271.033 113.544 270.176 115.153C270.127 115.116 269.995 115.181 269.904 115.153C269.055 114.931 268.115 115.588 267.143 116.078C267.283 112.989 266.689 110.057 266.038 107.097C267.588 105.469 266.928 102.018 267.967 99.8169C268.272 99.1787 276.598 89.9287 277.216 89.7437C278.93 89.2349 279.128 91.6677 279.285 92.9997C279.837 97.5322 278.642 102.305 278.46 106.791Z" fill="#D6ECE2"/>
    <path d="M261.62 76.4235C258.809 78.0515 255.083 83.028 253.888 86.1823C253.6 86.95 251.168 96.0243 251.127 96.5608C251.11 96.7643 251.11 96.9863 251.127 97.1805C248.983 93.6285 248.143 86.987 245.884 83.7033C245.233 82.7505 245.645 82.88 244.507 83.2408C244.293 82.2325 243.625 81.7978 242.851 81.696L257.35 58.1455L258.595 58.608C259.526 64.5743 261.084 70.3925 261.628 76.4235H261.62Z" fill="#AECCC0"/>
    <path d="M266.039 107.106C266.69 110.066 267.284 112.998 267.143 116.087C262.775 118.326 259.164 122.535 256.378 126.78C256.914 123.996 256.205 119.686 256.65 117.179C257.194 114.145 263.5 107.966 265.759 105.866C265.866 106.301 265.94 106.671 266.031 107.106H266.039Z" fill="#82B3AB"/>
    <path d="M262.445 97.1896C263.096 98.4013 264.456 101.704 264.926 103.073L256.642 114.691C257.087 111.37 256.048 105.959 256.642 102.915C256.988 101.167 260.516 97.2543 260.92 95.0158C261.126 94.9603 262.263 96.8658 262.436 97.1803L262.445 97.1896Z" fill="#82B3AB"/>
    <path d="M244.499 121.046C244.499 118.465 244.507 115.875 244.499 113.303L250.714 98.124C251.324 100.807 255.693 106.375 256.097 108.503C256.864 112.554 255.908 121.286 255.545 125.541C253.946 119.51 249.948 115.005 246.296 110.51C245.48 110.473 246.313 111.685 246.436 111.907C247.475 113.738 250.376 116.291 251.679 118.409C253.929 122.054 255.982 126.577 255.545 131.11C252.305 127.206 249.222 122.812 244.499 121.036V121.046Z" fill="#82B3AB"/>
    <path d="M244.499 133.44C244.524 129.528 244.78 125.559 244.771 121.665C249.89 125.106 257.73 130.934 254.573 138.704L244.491 133.44H244.499Z" fill="#82B3AB"/>
    <path d="M251.127 97.1897C251.11 96.9954 251.11 96.7734 251.127 96.5699L255.265 87.4309C255.504 86.9406 255.949 86.9129 256.089 87.4309C257.152 91.1771 255.289 102.129 256.089 106.643C254.935 105.015 251.259 98.9009 251.118 97.1897H251.127Z" fill="#82B3AB"/>
    <path d="M270.176 115.163C271.182 115.885 271.363 119.705 271.001 120.898C270.803 121.555 265.486 124.302 264.513 125.079C260.219 128.539 257.639 133.506 255.957 139.019C254.622 131.203 257.243 124.348 262.857 119.807C265.585 117.596 267.704 117.513 269.896 115.163C269.995 115.191 270.119 115.126 270.168 115.163H270.176Z" fill="#82B3AB"/>
    <path d="M261.62 76.4238C261.703 77.3118 262.362 81.0581 262.172 81.5391C261.942 82.1218 257.111 84.4343 256.93 86.9596L256.658 101.371C257.375 100.474 260.499 95.2846 260.524 94.5538C260.581 93.0831 257.103 88.8466 256.938 87.5793C257.35 86.7838 261.579 82.1126 262.181 82.7786L262.453 97.1901C262.28 96.8663 261.134 94.9701 260.936 95.0256C260.524 97.2641 256.996 101.177 256.658 102.925C256.064 105.968 257.103 111.38 256.658 114.7L264.942 103.082C265.049 103.397 265.123 103.711 265.214 104.007C263.013 105.469 261.109 108.142 259.971 110.667L265.494 105.247C265.569 105.506 265.7 105.608 265.766 105.867C263.5 107.966 257.194 114.136 256.658 117.179C256.204 119.695 256.922 123.997 256.386 126.781C259.18 122.544 262.782 118.326 267.151 116.088C268.124 115.588 269.064 114.941 269.913 115.163C267.72 117.522 265.602 117.605 262.873 119.806C257.259 124.348 254.638 131.202 255.974 139.019C257.663 133.496 260.235 128.538 264.53 125.079C265.503 124.293 270.828 121.545 271.017 120.898C271.372 119.705 271.199 115.884 270.193 115.163C271.05 113.553 272.295 112.203 273.507 110.982C273.869 110.621 273.795 111.565 273.919 111.444C274.545 110.843 274.669 109.733 275.576 108.965C276.359 108.299 277.612 107.421 278.477 106.801C279.986 105.709 281.84 104.59 283.448 103.702C285.921 102.342 296.274 97.7081 298.5 97.8191C299.118 97.8468 299.613 98.0781 300.017 98.5961C292.697 116.088 286.399 140.628 266.879 144.606C263.862 144.569 260.771 144.791 257.771 144.606C259.403 142.413 266.764 139.028 267.852 137.169C268.009 136.9 268.33 135.411 268.124 135.004C266.038 133.681 257.111 141.979 256.114 144.606C253.501 144.041 255.504 140.702 254.597 139.342C253.641 137.899 246.032 135.781 244.516 133.765C244.516 133.663 244.516 133.561 244.516 133.459L254.597 138.723C257.754 130.953 249.915 125.125 244.796 121.684C244.796 121.647 244.524 121.841 244.524 121.064C249.239 122.831 252.33 127.234 255.57 131.138C256.007 126.605 253.954 122.082 251.704 118.437C250.393 116.319 247.491 113.766 246.461 111.935C246.337 111.722 245.505 110.501 246.321 110.538C249.973 115.033 253.97 119.538 255.57 125.569C255.932 121.305 256.889 112.582 256.122 108.531C255.718 106.394 251.341 100.835 250.739 98.1521L244.524 113.331C244.499 106.745 245.612 88.3656 244.524 83.2781C245.661 82.9173 245.249 82.7971 245.9 83.7406C248.167 87.0243 249.008 93.6658 251.143 97.2178C251.283 98.9291 254.96 105.043 256.114 106.671C255.314 102.157 257.177 91.2053 256.114 87.4591C255.965 86.9411 255.52 86.9688 255.289 87.4591L251.151 96.5981C251.193 96.0616 253.624 86.9873 253.913 86.2196C255.108 83.0653 258.834 78.0888 261.645 76.4608L261.62 76.4238Z" fill="#AECCC0"/>
    <path d="M256.921 86.96C256.904 87.1542 256.896 87.3855 256.921 87.5797C257.094 88.8377 260.564 93.0835 260.507 94.5542C260.482 95.285 257.358 100.474 256.641 101.371L256.913 86.96H256.921Z" fill="#82B3AB"/>
    <path d="M265.205 104.008C265.32 104.359 265.378 104.887 265.477 105.247L259.954 110.668C261.1 108.133 262.996 105.469 265.197 104.008H265.205Z" fill="#82B3AB"/>
    <path d="M270.316 126.003C270.58 126.013 270.852 125.892 271.009 126.161C271.314 126.642 269.541 133.329 269.08 133.903C268.288 134.883 267.274 134.032 266.458 134.365C262.296 136.077 259.04 139.897 255.965 143.347C256.336 139.323 267.489 125.865 270.324 125.994L270.316 126.003Z" fill="#AECCC0"/>
    <path d="M270.588 122.285C271.569 122.331 271.495 124.81 271.281 125.227C271.223 125.347 269.682 125.227 268.932 125.689C264.093 128.668 260.309 134.736 256.781 139.324C257.391 134.745 260.705 129.112 263.961 126.309C264.612 125.745 270.209 122.267 270.588 122.285Z" fill="#AECCC0"/>
    <path d="M257.754 144.596C257.325 144.568 256.179 144.615 256.097 144.596C257.094 141.96 266.021 133.672 268.107 134.995C268.313 135.402 267.992 136.891 267.835 137.159C266.747 139.009 259.394 142.404 257.754 144.596Z" fill="#AECCC0"/>
    <path d="M272.797 117.022C273.217 120.241 272.937 125.172 271.973 128.178L272.797 117.022Z" fill="#D6ECE2"/>
    <path d="M244.499 144.281C244.499 142.015 244.499 139.73 244.499 137.464L252.503 144.438C252.041 145.114 245.562 144.244 244.499 144.281Z" fill="#D6ECE2"/>
    <path d="M30.7796 95.6357C32.082 97.236 33.2113 99.1045 34.6456 100.594C34.6374 104.71 34.3736 108.9 34.3736 112.989C32.6425 111.092 29.6503 109.862 27.8863 108.345C27.3752 107.91 26.9383 106.44 26.7817 106.486C26.4684 106.569 26.9465 107.429 26.2294 107.411C25.8997 107.411 23.7977 105.727 23.3278 105.552C23.3938 105.015 23.0228 104.895 23.0558 104.312C23.1217 102.804 25.0259 91.0385 25.6771 90.6777C27.4741 91.1495 29.4277 93.9615 30.7878 95.6357H30.7796Z" fill="#9DB8A8"/>
    <path d="M34.6464 73.3249C34.6217 82.4084 34.6711 91.5289 34.6464 100.594C33.2121 99.1047 32.0828 97.2362 30.7804 95.636L29.9561 68.8295C32.363 68.4872 32.9071 71.9282 34.6464 73.3249Z" fill="#AECCC0"/>
    <path d="M23.32 105.552C23.7817 105.728 25.8919 107.402 26.2216 107.411C26.9388 107.43 26.4607 106.569 26.7739 106.486C26.9305 106.44 27.3674 107.911 27.8785 108.345C29.6425 109.862 32.6348 111.093 34.3658 112.989C34.3658 115.616 34.6461 118.372 34.6378 121.046C34.0938 121.11 31.4395 110.149 30.7718 111.592V112.517L34.6378 124.45C34.6296 129.815 34.3658 135.207 34.3658 140.563C34.0031 140.535 29.4859 136.687 29.6755 138.241L34.0938 141.34C33.6404 142.173 30.4751 140.443 30.6399 141.803L34.6461 142.422C34.6543 143.144 34.6461 143.875 34.6461 144.587C31.9011 144.587 29.1974 144.578 26.642 144.587C22.4298 142.737 19.0831 140.831 15.3242 138.084L25.8177 136.068C23.8146 135.087 17.7477 128.982 16.1568 128.788C11.8044 123.534 6.99043 118.483 3.7344 112.212C2.45671 109.761 -2.75294 99.3635 1.9374 99.6595C4.72357 99.8353 20.097 104.34 23.3365 105.543L23.32 105.552Z" fill="#AECCC0"/>
    <path d="M34.6463 121.045C34.6463 122.174 34.6463 123.321 34.6463 124.449L30.7803 112.517V111.592C31.448 110.149 34.1022 121.11 34.6463 121.045Z" fill="#D6ECE2"/>
    <path d="M16.1398 128.788C17.7307 128.982 23.7977 135.087 25.8007 136.068L15.3072 138.084C12.4881 136.022 9.52057 133.987 7.5752 130.805C7.67411 130.231 15.2578 128.686 16.1316 128.788H16.1398Z" fill="#82B3AB"/>
    <path d="M34.3655 140.563C34.3655 140.656 34.6293 141.756 34.6375 142.422L30.6314 141.803C30.4665 140.443 33.6319 142.163 34.0852 141.34L29.6669 138.241C29.4773 136.697 34.0028 140.535 34.3573 140.563H34.3655Z" fill="#D6ECE2"/>
    <path d="M244.499 83.2407C245.587 88.3282 244.474 106.708 244.499 113.294C244.507 115.875 244.499 118.465 244.499 121.036C244.499 121.813 244.771 121.619 244.771 121.656C244.771 125.55 244.524 129.509 244.499 133.431C244.499 133.533 244.499 133.635 244.499 133.736C244.499 134.976 244.499 136.215 244.499 137.455C244.499 139.721 244.499 142.006 244.499 144.272C231.632 144.744 218.022 144.614 204.734 144.577C205.534 137.381 204.734 130.083 204.734 122.886C204.734 122.507 205.006 121.554 205.006 120.722C205.006 115.773 204.982 110.806 205.006 105.848C205.006 105.542 205.006 105.228 205.006 104.923C205.031 100.723 204.66 96.3664 204.734 92.2224C204.734 92.0652 204.998 91.0477 205.006 90.3632C205.031 89.0034 204.767 83.4719 205.006 82.7689C205.501 81.3444 212.912 82.1862 214.667 81.9919C214.659 82.5284 213.893 83.6477 213.843 83.8512L206.944 84.1564L206.672 142.875L242.29 142.718L242.562 83.9992L235.935 83.8419C235.877 83.5922 235.522 82.5007 235.382 82.2972C237.221 82.2417 241.26 81.4647 242.834 81.6774C243.609 81.7792 244.277 82.2139 244.491 83.2222L244.499 83.2407Z" fill="#6B87A0"/>
    <path d="M206.944 84.1748V142.274L242.29 142.737L206.672 142.894L206.944 84.1748Z" fill="#55748D"/>
    <path d="M225.441 75.4987C229.315 75.7855 229.859 80.6787 230.552 81.0764C231.434 81.5852 234.047 80.2624 235.382 82.3159C235.522 82.5287 235.877 83.611 235.935 83.8607C236.174 84.9245 236.578 87.4312 235.523 87.8844C234.797 88.199 221.888 87.9862 220.058 87.8844C218.047 87.7735 216.019 87.3294 213.983 87.5792C213.332 87.1999 213.678 84.536 213.843 83.8607C213.893 83.6572 214.659 82.5379 214.667 82.0014C215.203 81.9459 219.284 81.1967 219.498 81.0764C220.339 80.5862 221.476 76.9324 222.671 76.1184C223.586 75.4987 224.37 75.4155 225.433 75.4987H225.441Z" fill="#F6C881"/>
    <path d="M224.205 77.0436C227.436 75.8411 228.359 81.8536 224.477 80.7621C222.787 80.2811 222.902 77.5246 224.205 77.0436Z" fill="#D6ECE2"/>
    <path d="M213.852 83.8604C213.687 84.5356 213.341 87.1996 213.992 87.5788C216.028 87.3291 218.056 87.7824 220.067 87.8841C221.889 87.9859 234.806 88.1986 235.531 87.8841C236.586 87.4216 236.182 84.9241 235.943 83.8604L242.571 84.0176L242.299 142.737L206.952 142.274V84.1748L213.852 83.8696V83.8604Z" fill="white"/>
    <path d="M213.431 128.483C220.289 127.04 220.874 138.167 215.087 138.704C209.301 139.24 208.444 129.528 213.431 128.483Z" fill="#D6ECE2"/>
    <path d="M209.846 121.665H239.941C240.238 121.915 240.51 122.322 240.353 122.747C239.776 124.329 213.201 122.498 209.846 123.21V121.665Z" fill="#D6ECE2"/>
    <path d="M209.845 106.79C211.032 105.949 235.374 106.448 238.012 106.79C238.63 106.874 240.608 106.975 240.361 107.873C239.908 109.491 213.233 107.595 210.125 108.335C209.664 108.095 209.524 107.012 209.853 106.79H209.845Z" fill="#D6ECE2"/>
    <path d="M209.845 95.3301H239.941L240.353 96.4123L210.67 96.8748C209.812 96.3383 208.741 96.7083 209.845 95.3301Z" fill="#D6ECE2"/>
    <path d="M210.398 98.7344L239.941 99.0396C240.411 98.9286 240.452 99.4559 240.353 99.8166C239.9 101.454 212.978 99.5299 209.846 100.279C208.898 99.2061 209.557 99.1969 210.398 98.7344Z" fill="#D6ECE2"/>
    <path d="M209.565 125.068L240.353 125.845C236.726 125.919 210.851 127.261 209.565 126.308C209.343 126.141 209.343 125.235 209.565 125.068Z" fill="#D6ECE2"/>
    <path d="M209.846 114.228H239.941C240.213 114.357 240.535 115.069 240.353 115.31C239.364 116.633 213.168 114.616 209.565 115.467L209.837 114.228H209.846Z" fill="#D6ECE2"/>
    <path d="M209.565 117.946L240.353 118.723L209.846 119.186L209.565 117.946Z" fill="#D6ECE2"/>
    <path d="M209.846 102.767L240.353 103.534L209.846 104.006V102.767Z" fill="#D6ECE2"/>
    <path d="M209.846 110.204L240.353 110.972L209.846 111.444V110.204Z" fill="#D6ECE2"/>
    <path d="M53.4158 66.5082C53.218 68.1732 52.9707 69.4405 53.1438 71.1517L38.7843 71.6142L38.9244 142.414L84.344 142.256V71.6142L72.4739 71.457C72.6223 69.8937 71.6413 67.3222 72.7459 66.499C74.9716 66.6747 78.5326 66.0735 81.0303 66.1937C81.7969 66.2307 82.4728 66.4527 83.2394 66.499C85.9926 66.6932 88.8942 65.204 89.0343 68.978C89.059 69.5515 88.9931 71.3275 89.0343 72.382C89.2486 77.7655 88.9931 83.2507 89.0343 88.6527C89.0343 88.9025 89.5784 88.4955 89.5866 89.4297C89.6525 100.271 88.9601 113.341 89.0343 125.061C89.0343 125.93 89.3063 127.086 89.3063 127.54C89.3228 129.556 88.4078 143.755 89.4465 144.273C91.5237 143.746 100.031 144.976 101.317 144.273C102.405 143.681 100.797 141.822 102.281 141.794C102.166 142.626 102.363 143.709 102.281 144.578C79.7361 144.587 57.1747 144.513 34.6297 144.578C34.6297 143.857 34.638 143.126 34.6297 142.414C34.6215 141.748 34.3495 140.647 34.3577 140.554C34.3577 135.199 34.6215 129.806 34.6297 124.441C34.6297 123.312 34.6297 122.165 34.6297 121.037C34.6297 118.364 34.3495 115.607 34.3577 112.98C34.3577 108.892 34.6215 104.711 34.6297 100.585C34.6545 91.5202 34.605 82.409 34.6297 73.3162C34.6297 71.5772 33.5829 67.1095 35.3222 66.499C38.7431 65.2965 49.2036 67.239 53.4076 66.499L53.4158 66.5082Z" fill="#F9DAB4"/>
    <path d="M64.4609 61.5496C64.4444 63.8251 63.7026 64.0748 61.9798 64.0286C59.9107 61.3646 62.3177 58.6173 64.4609 61.5496Z" fill="#D6ECE2"/>
    <path d="M61.98 64.0287C63.7111 64.075 64.4447 63.8252 64.4612 61.5497C64.8239 62.04 64.8733 61.485 64.8733 63.0945C66.3818 61.4665 64.5931 60.6987 64.8733 59.376C66.5302 60.19 66.7693 65.4532 67.9068 65.8787C68.5827 66.1285 70.7919 65.777 71.7728 65.8787C71.8965 65.888 72.6878 66.4985 72.7373 66.4985C71.6327 67.3217 72.6054 69.8932 72.4653 71.4565C72.3911 72.2335 72.5807 72.9087 72.0531 73.621H53.5555C52.8796 73.288 53.2093 71.7987 53.1434 71.142C52.9703 69.4215 53.2258 68.1635 53.4154 66.4985C54.0172 65.1387 56.6549 66.3042 57.6936 65.8787C58.6663 65.481 59.1196 61.226 59.7626 60.1437C60.2242 59.376 62.9857 57.1837 63.3484 59.2187C60.3891 58.7377 59.0125 63.9455 61.9718 64.0195L61.98 64.0287Z" fill="#5DA9AD"/>
    <path d="M54.9404 71.7806C60.3809 72.0766 65.9697 71.1794 71.369 72.2431L62.6725 72.4004L54.9404 71.7806Z" fill="#A8D7DA"/>
    <path d="M53.1441 71.1602C53.2101 71.8169 52.8803 73.3062 53.5563 73.6392H72.0538C72.5814 72.9177 72.3918 72.2424 72.466 71.4747L84.3361 71.6319V142.274L38.9165 142.431L38.7764 71.6319L53.1359 71.1694L53.1441 71.1602Z" fill="white"/>
    <path d="M48.3137 122.285C56.7876 120.925 57.48 134.791 50.2426 135.605C42.2797 136.502 41.4471 123.386 48.3137 122.285Z" fill="#79BABD"/>
    <path d="M43.3428 91.2979H80.0659L80.206 92.6946L43.3428 93.1571V91.2979Z" fill="#C9E7E8"/>
    <path d="M43.3428 97.4951H79.7938L80.206 98.8919L43.3428 99.3544V97.4951Z" fill="#C9E7E8"/>
    <path d="M43.3428 103.692H79.7938L80.206 105.089L43.3428 105.552V103.692Z" fill="#C9E7E8"/>
    <path d="M43.0625 85.0995C46.9862 86.0985 79.5713 83.601 80.1977 85.562C80.2225 85.6268 79.7609 86.4963 79.7856 86.9588H43.3345L43.0625 85.0995Z" fill="#BFE3E8"/>
    <path d="M43.3428 109.89H80.0659L80.206 111.286L43.3428 111.749V109.89Z" fill="#C9E7E8"/>
    <path d="M43.3428 116.087C47.7199 117.003 78.5656 114.894 80.0659 116.087C80.2472 116.235 80.2802 117.317 80.206 117.484C79.357 119.325 47.8682 116.642 43.3428 117.946V116.087Z" fill="#C9E7E8"/>
    <path d="M43.3423 75.4985L79.7934 75.8038C79.983 75.9333 79.9995 76.6918 79.9335 76.886C79.2823 78.8193 47.0188 76.368 43.0703 77.3485L43.3423 75.4893V75.4985Z" fill="#BFE3E8"/>
    <path d="M43.0624 80.4564C44.5627 79.2631 75.4084 81.3721 79.7855 80.4564L79.9256 81.8531C75.5568 81.1964 44.5627 83.2036 43.0624 82.0104C42.8399 81.8346 42.8399 80.6414 43.0624 80.4656V80.4564Z" fill="#BFE3E8"/>
    <path d="M59.3594 132.201H79.2418C79.621 132.34 79.7941 133.265 79.6539 133.598C79.217 134.625 61.7416 133.774 59.3594 134.06V132.201Z" fill="#BFE3E8"/>
    <path d="M59.6309 122.59C60.5624 122.192 78.6973 121.942 79.5133 122.59C79.7112 122.747 79.7112 123.894 79.6535 123.987C79.0517 124.884 60.5542 124.579 59.6309 124.144C59.4166 124.042 58.9715 122.877 59.6309 122.599V122.59Z" fill="#BFE3E8"/>
    <path d="M59.3588 127.548C60.2161 126.937 79.3237 126.937 79.6534 128.01C79.6699 128.066 79.2907 129.074 79.2412 129.093C78.3345 129.509 60.5294 129.555 59.6391 129.093C59.1775 128.852 59.0373 127.77 59.3671 127.548H59.3588Z" fill="#BFE3E8"/>
    <path d="M179.882 20.6554C182.075 21.5804 187.4 28.3329 189.543 30.7286C201.611 44.1689 213.448 57.9514 225.161 71.7801H168.968L124.233 21.2751H122.716V20.9699L165.514 20.6646C165.514 23.7819 165.011 31.3206 165.514 33.8366C165.646 34.5026 171.424 45.2326 172.001 45.4546C172.265 45.5564 177.269 45.5841 177.524 45.4546C178.283 37.1481 177.936 28.6936 177.936 20.3594C178.571 20.7201 179.206 20.3871 179.865 20.6646L179.882 20.6554Z" fill="#79BABD"/>
    <path d="M122.724 20.9599V21.2652C133.737 34.8719 145.565 47.5814 157.238 60.4574C158.853 62.2427 160.403 65.3322 162.068 67.1174C164.838 70.0867 168.654 72.0292 171.317 75.1742C168.49 75.1187 163.313 75.9327 160.823 75.1742C159.191 74.6747 143.439 53.7974 140.669 50.5414C134.833 43.6687 128.527 37.3047 122.584 30.5522C114.374 39.2009 106.155 47.7664 98.9754 57.5067L89.0342 68.9674C88.8858 65.1934 85.9842 66.6827 83.2393 66.4884L122.312 21.8664L121.619 20.9414H122.724V20.9599Z" fill="#A8D7DA"/>
    <path d="M177.952 15.6974V20.3409C177.952 28.6752 178.298 37.1297 177.54 45.4362C177.285 45.5657 172.281 45.5379 172.017 45.4362C171.44 45.2142 165.662 34.4842 165.53 33.8182C165.027 31.3022 165.53 23.7727 165.53 20.6462C165.53 19.9432 165.258 19.6102 165.258 19.4067C165.258 18.6667 165.818 17.0109 165.53 16.0027C166.511 15.4477 170.665 12.3767 171.193 12.2842C172.256 12.0992 176.691 14.8927 177.96 15.6882L177.952 15.6974Z" fill="#F9CFCE"/>
    <path d="M180.162 17.8616C180.327 16.6961 178.769 16.2059 177.953 15.6971C176.683 14.9016 172.248 12.1081 171.185 12.2931C170.666 12.3856 166.503 15.4566 165.522 16.0116C164.755 16.4464 163.774 16.6776 163.041 17.2511C162.019 11.2571 165.654 13.5049 167.731 10.1286C169.866 9.88814 169.94 8.87064 171.185 8.58389C174.342 7.85314 179.659 9.12964 183.055 8.58389C183.476 14.7351 184.011 14.4761 180.154 17.8801L180.162 17.8616Z" fill="#A8D7DA"/>
    <path d="M180.161 17.8613C179.494 18.444 178.743 19.5355 177.952 20.0258V15.6875C178.768 16.2055 180.326 16.6865 180.161 17.852V17.8613Z" fill="#79BABD"/>
    <path d="M165.522 16.002C165.811 17.0195 165.242 18.666 165.25 19.406C163.89 19.0915 163.321 18.8972 163.041 17.2415C163.775 16.668 164.756 16.4367 165.522 16.002Z" fill="#A8D7DA"/>
    <path d="M225.169 71.7799L225.441 75.4984C224.378 75.4152 223.595 75.4984 222.68 76.1182C222.185 75.3319 222.185 75.5632 221.435 75.4984C205.765 74.1387 187.374 75.4984 171.317 75.1932C168.646 72.0482 164.838 70.1057 162.068 67.1364C160.403 65.3512 158.853 62.2617 157.238 60.4764C145.565 47.6004 133.736 34.8909 122.724 21.2842H124.24L168.976 71.7892H225.169V71.7799Z" fill="white"/>
    <path d="M106.716 125.069C106.716 125.152 107.606 124.782 107.268 126.308C107.26 126.355 106.856 126.78 106.856 127.233L89.3228 127.539C89.3228 127.085 89.0508 125.929 89.0508 125.06H106.724L106.716 125.069Z" fill="#F9CFCE"/>
    <path d="M171.326 75.1837C187.383 75.4982 205.765 74.1385 221.444 75.489C222.194 75.5537 222.186 75.3225 222.688 76.1087C221.493 76.9227 220.356 80.5765 219.515 81.0667C219.301 81.1962 215.22 81.9362 214.684 81.9917C212.929 82.1767 205.51 81.3442 205.023 82.7687C204.784 83.4717 205.048 88.994 205.023 90.363H202.814C202.699 89.179 204.174 90.0762 204.471 89.586C205.056 88.6147 203.457 82.593 205.436 81.6865L205.164 81.0667H161.953C161.797 78.7542 162.275 77.2372 160.849 75.1837C163.338 75.9422 168.515 75.1282 171.342 75.1837H171.326Z" fill="#F9CFCE"/>
    <path d="M205.015 105.866C204.991 110.815 205.015 115.782 205.015 120.74L198.116 120.583C198.289 118.733 197.786 106.634 198.388 106.023C198.874 105.533 203.96 106.069 205.015 105.866Z" fill="#A8D7DA"/>
    <path d="M204.735 92.2311C204.669 96.3844 205.032 100.732 205.007 104.931L198.519 105.237C198.247 103.849 198.05 92.9064 198.379 92.3792C198.643 91.9722 203.836 92.3699 204.727 92.2219L204.735 92.2311Z" fill="#A8D7DA"/>
    <path d="M202.806 90.3723H205.015C204.998 91.0568 204.743 92.0743 204.743 92.2316C203.853 92.3796 198.651 91.9726 198.396 92.3888C198.066 92.9161 198.264 103.859 198.536 105.246L205.023 104.941C205.023 105.246 205.023 105.561 205.023 105.866C203.968 106.07 198.882 105.533 198.396 106.023C197.786 106.634 198.289 118.733 198.124 120.583L205.023 120.74C205.023 121.573 204.751 122.525 204.751 122.905L196.747 122.442L197.019 90.5296C197.209 90.2336 202.014 90.3723 202.814 90.3723H202.806Z" fill="white"/>
    <path d="M143.158 143.662V144.587C129.541 144.578 115.907 144.587 102.289 144.587C102.372 143.708 102.174 142.635 102.289 141.803C102.866 137.733 109.733 142.968 110.021 138.241L109.749 89.901L133.91 89.4385L133.77 139.786C134.239 140.979 142.342 139.712 143.018 140.249C143.274 140.452 143.158 143.088 143.158 143.653V143.662Z" fill="white"/>
    <path d="M121.619 116.402C121.652 117.133 121.289 118.872 122.031 119.187C122.303 118.188 122.13 117.105 122.171 116.088H132.385C132.731 123.95 132.129 131.915 132.385 139.796L111.81 140.258C110.829 139.768 111.282 118.558 111.398 116.088L121.611 116.393L121.619 116.402Z" fill="#79BABD"/>
    <path d="M111.818 91.2979L121.619 91.7604L121.488 111.13L111.406 110.973L111.818 91.2979Z" fill="#79BABD"/>
    <path d="M132.393 93.1572C133.003 98.5962 131.939 105.376 132.393 110.973C131 111.121 122.427 111.481 122.18 110.973C122.633 105.376 121.57 98.5962 122.18 93.1572H132.393Z" fill="#79BABD"/>
    <path d="M121.619 113.608C121.718 114.45 121.586 115.505 121.619 116.393L111.406 116.087C111.439 115.375 111.331 114.617 111.406 113.923L121.619 113.618V113.608Z" fill="#79BABD"/>
    <path d="M132.393 113.608C132.483 114.358 132.36 115.292 132.393 116.087H122.179C122.204 115.375 122.105 114.617 122.179 113.923L132.393 113.618V113.608Z" fill="#79BABD"/>
    <path d="M132.393 113.609L122.18 113.915C122.254 113.156 121.908 112.296 122.592 111.75H131.981C132.64 112.231 132.31 112.953 132.393 113.609Z" fill="#79BABD"/>
    <path d="M121.619 113.609L111.406 113.915C111.464 113.36 111.365 112.767 111.406 112.212L121.207 111.75C121.866 112.231 121.545 112.953 121.619 113.609Z" fill="#79BABD"/>
    <path d="M132.393 93.1571H122.18C122.254 92.5004 121.941 91.7789 122.592 91.2979H131.981C132.641 91.7789 132.319 92.5004 132.393 93.1571Z" fill="#79BABD"/>
    <path d="M89.595 89.4382C94.8706 90.1042 101.935 88.5502 106.988 89.4382C107.054 101.324 107.021 113.201 106.716 125.069H89.0427C88.9685 113.349 89.6609 100.279 89.595 89.4382Z" fill="white"/>
    <path d="M107.268 126.309C107.606 124.783 106.716 125.153 106.716 125.07C107.021 113.193 107.062 101.316 106.988 89.4385C107.243 89.4848 107.408 88.902 107.54 89.2813L107.268 126.309Z" fill="#F9DAB4"/>
    <path d="M90.2793 105.866H105.191L105.611 122.442L90.5596 122.905L90.2793 105.866Z" fill="#A8D7DA"/>
    <path d="M104.919 91.2979C104.969 91.3164 105.595 92.0194 105.612 92.0749L105.199 105.247L90.1475 105.09L90.2876 91.6124L104.919 91.3071V91.2979Z" fill="#A8D7DA"/>
    <path d="M202.806 90.372C201.998 90.372 197.192 90.2332 197.011 90.5292L196.739 122.442L204.743 122.904C204.743 130.101 205.543 137.39 204.743 144.595C184.226 144.549 163.684 144.614 143.167 144.595V143.67L163.049 144.133C163.033 139.878 163.33 135.688 163.321 131.433C163.297 115.504 163 96.9025 161.945 81.085H205.155L205.427 81.7047C203.449 82.6205 205.048 88.6422 204.463 89.6042C204.166 90.0945 202.691 89.1972 202.806 90.3812V90.372Z" fill="#F9CFCE"/>
    <path d="M169.528 90.3721L186.237 90.5201L185.825 122.904L169.116 122.442L169.528 90.3721Z" fill="white"/>
    <path d="M170.913 105.866H184.72L184.852 120.583L170.913 121.045V105.866Z" fill="#A8D7DA"/>
    <path d="M170.913 92.2314H184.72L184.86 105.089C182.693 104.71 172.372 105.94 171.193 105.246C170.971 105.117 170.74 104.654 170.501 104.469L170.913 92.2314Z" fill="#A8D7DA"/>
    <path d="M160.832 75.1835C162.258 77.2463 161.78 78.754 161.937 81.0665C162.992 96.884 163.288 115.486 163.313 131.414C163.313 135.669 163.016 139.869 163.041 144.115L143.159 143.652C143.159 143.079 143.282 140.452 143.019 140.248C142.343 139.712 134.24 140.97 133.77 139.786L133.91 89.4378L109.749 89.9003L110.021 138.241C109.733 142.968 102.866 137.741 102.289 141.802C100.806 141.83 102.413 143.689 101.325 144.281C100.039 144.984 91.5321 143.754 89.4548 144.281C88.4162 143.763 89.3312 129.564 89.3147 127.548H107.128L107.268 126.308L107.54 89.2805C107.408 88.9013 107.243 89.484 106.988 89.4378C101.927 88.5498 94.8705 90.1038 89.5949 89.4378C89.5949 88.5035 89.0426 88.9105 89.0426 88.6608C89.0014 83.2588 89.257 77.7735 89.0426 72.39C92.2657 67.4228 95.497 62.2428 98.9838 57.516C106.164 47.7758 114.39 39.2103 122.592 30.5615C128.535 37.314 134.841 43.678 140.678 50.5508C143.447 53.8068 159.2 74.684 160.832 75.1835Z" fill="#F9CFCE"/>
    <path d="M89.0422 72.3989C89.001 71.3352 89.067 69.5684 89.0422 68.9949L98.9834 57.5342C95.4966 62.2609 92.2653 67.4409 89.0422 72.4082V72.3989Z" fill="#F9CFCE"/>
    <path d="M155.309 89.4377L136.531 89.5949V124.606C142.846 124.754 149.366 125.013 155.581 124.606V89.4377C155.655 89.5024 156.043 89.3082 156.133 89.5949V127.4C153.817 127.39 135.847 128.158 135.427 127.094C136.029 116.549 135.138 105.708 135.699 95.1819C135.765 93.9147 135.847 89.1879 136.663 88.8271L155.301 89.4469L155.309 89.4377Z" fill="#F9CFCE"/>
    <path d="M89.3149 127.548L106.848 127.242C106.848 126.789 107.252 126.364 107.26 126.317L107.12 127.557H89.3066L89.3149 127.548Z" fill="#F9DAB4"/>
    <path d="M120.383 48.2286C137.488 46.0179 140.356 75.0166 123.697 76.4226C105.504 77.9581 105.208 50.1896 120.383 48.2286Z" fill="white"/>
    <path d="M120.935 49.783C121.364 49.8477 121.594 49.709 121.899 50.2455V60.7812L112.098 61.2437C110.26 56.7667 117.456 49.2372 120.935 49.783Z" fill="#A8D7DA"/>
    <path d="M112.098 62.168H121.487L121.899 72.861C117.053 73.4992 111.068 67.6162 112.098 62.168Z" fill="#A8D7DA"/>
    <path d="M122.865 49.7822C127.827 50.069 133.02 55.2397 132.526 60.9377L122.725 60.7805L122.865 49.7822Z" fill="#A8D7DA"/>
    <path d="M122.864 62.168L132.946 62.6305C132.162 68.3007 128.057 72.8702 122.864 73.009V62.168Z" fill="#A8D7DA"/>
    <path d="M155.309 89.4382C155.4 89.4752 155.532 89.392 155.581 89.4382V124.607C149.358 125.014 142.837 124.755 136.531 124.607V89.5955L155.309 89.4382Z" fill="white"/>
    <path d="M138.328 105.866H153.792L154.204 122.442L138.328 122.905V105.866Z" fill="#A8D7DA"/>
    <path d="M138.328 91.2979H153.792L154.204 104.775L138.048 105.247L138.328 91.2979Z" fill="#A8D7DA"/>
    </svg>
    