<svg width="280" height="183" viewBox="0 0 300 193" fill="none" xmlns="http://www.w3.org/2000/svg">
<path d="M240.333 179.922C240.103 183.069 251.821 182.686 253.075 182.251C253.254 182.199 255.173 179.487 255.224 179.283C259.446 177.671 260.393 173.167 265.331 171.99C270.269 170.813 277.024 172.758 280.069 176.801C280.478 177.338 281.655 181.483 281.885 181.611C282.832 182.174 288 179.564 290.661 184.093C292.631 187.47 291.352 190.975 287.847 192.536H229.254C222.32 189.901 228.077 180.152 233.553 179.308C235.855 178.95 238.977 180.127 240.333 179.973V179.922Z" fill="url(#paint0_linear_1466_4598)"/>
<path d="M267.966 96.8428C272.904 102.497 276.767 109.917 284.674 111.913C282.883 115.393 279.48 118.617 275.565 119.026C271.138 119.512 263.155 117.005 260.495 113.244C259.932 112.425 258.064 107.794 258.166 106.949C258.269 106.207 267.224 96.9195 267.94 96.8428H267.966Z" fill="#EAF5F8"/>
<path d="M269.629 136.554C275.105 142.004 278.534 149.833 287.335 150.959C283.42 157.483 277.152 158.66 270.295 156.409C266.815 155.283 259.011 149.628 260.188 145.33C260.367 144.716 268.99 136.656 269.629 136.554Z" fill="#F6EFCE"/>
<path d="M241.152 18.7282C242.047 18.4723 258.627 18.7282 259.676 19.0608C262.158 19.8284 264.307 24.3316 263.821 26.839C263.693 27.5043 257.808 34.1311 257.041 34.6173C251.898 37.9435 253.612 33.3124 250.414 31.6493C249.032 30.9329 246.678 31.4958 245.271 30.4979C243.199 29.0139 245.553 23.564 240.793 22.7196C239.821 22.5405 238.107 22.7196 237.16 23.0523C235.292 23.6407 234.371 26.0459 232.683 26.532C233.322 25.2783 240.563 18.9073 241.126 18.7537L241.152 18.7282Z" fill="#F4CCCF"/>
<path d="M220.964 28.3232C221.501 28.2209 231.377 28.4767 231.889 28.6558C234.832 29.6537 232.375 36.2294 228.921 37.2528C227.693 37.6366 220.452 37.8669 219.326 37.5855C215.36 36.5876 217.305 29.014 220.989 28.3232H220.964Z" fill="#F4CCCF"/>
<path d="M83.258 16.7326C92.29 15.3253 92.9297 28.2976 85.5864 29.3211C76.8614 30.5236 75.6333 17.9351 83.258 16.7326Z" fill="#F5D3AE"/>
<path d="M139.855 0.177984C147.761 -1.5363 149.962 9.64493 143.488 11.7686C134.891 14.5831 132.614 1.76434 139.855 0.177984Z" fill="#C2E4E3"/>
<path d="M269.962 80.954C279.685 79.2398 280.043 94.5148 268.631 91.2142C262.721 89.4999 265.203 81.7984 269.962 80.954Z" fill="#D8D5AF"/>
<path d="M239.821 117.696C245.015 116.75 247.625 120.716 245.936 125.475C243.275 133.023 231.608 127.394 236.341 120.178C236.802 119.487 239.105 117.824 239.821 117.696Z" fill="#D8D5AF"/>
<path d="M204.742 175.291C213.109 174.677 212.802 188.237 203.744 186.549C197.91 185.449 198.422 175.751 204.742 175.291Z" fill="#F5D3AE"/>
<path d="M254.559 174.958C251.463 175.624 248.853 176.059 245.629 175.956C242.585 175.854 237.493 175.547 238.337 171.146C238.44 170.583 239.898 169.15 240.487 168.997C241.126 168.843 251.412 169.099 252.077 169.329C254.636 170.199 254.226 172.963 254.559 174.958Z" fill="#F6EFCE"/>
<path d="M3.47975 168.664C3.99148 168.561 12.6397 168.792 13.0746 168.996C14.7633 169.738 12.4606 176.033 10.1066 176.621C9.59489 176.749 1.91898 176.749 1.5096 176.621C-1.3049 175.751 0.0767633 169.329 3.50533 168.689L3.47975 168.664Z" fill="#F6EFCE"/>
<path d="M230.891 151.777L232.375 152.263L231.044 157.892C235.65 158.225 238.439 160.4 232.042 160.86C232.938 162.447 234.217 163.649 232.196 165.005L229.56 161.705C228.332 168.306 224.469 166.029 227.079 160.553C219.658 161.014 220.452 157.023 227.232 157.739L226.413 153.594C229.919 150.703 227.923 158.89 230.891 151.777Z" fill="#A4D8D8"/>
<path d="M4.81045 55.7771C12.384 54.0884 13.3051 64.5276 7.77846 65.7046C0.307247 67.291 -0.588274 56.9797 4.81045 55.7771Z" fill="#F5D3AE"/>
<path d="M254.558 174.958C254.738 176.007 255.608 177.926 255.224 179.257C255.173 179.487 253.254 182.174 253.074 182.225C251.821 182.66 240.102 183.043 240.332 179.896C241.561 179.743 244.631 176.903 245.629 175.93C248.853 176.033 251.488 175.598 254.558 174.933V174.958Z" fill="#EAF5F8"/>
<path d="M101.475 6.13971C103.061 5.75592 103.624 8.72393 103.803 8.77511C104.11 8.87745 105.006 5.7815 106.439 6.13971C108.716 6.70261 105.543 10.2335 105.62 10.6173C105.901 12.1525 109.586 10.6941 110.251 12.2804L109.765 13.4318C104.673 13.176 108.844 15.0438 107.948 16.9116C105.799 18.4979 105.441 15.3764 104.136 14.4297C103.496 20.5704 99.3513 20.8519 101.321 14.2762C94.8481 14.0459 96.9462 11.6152 101.987 11.3082C102.319 10.6173 99.3257 6.70261 101.501 6.1653L101.475 6.13971Z" fill="#C2E4E3"/>
<path d="M58.107 171.3C58.7979 171.121 70.4141 171.069 71.0281 171.3C71.2584 171.376 74.0985 174.549 74.1753 174.779C74.9173 177.082 73.2542 181.611 70.6955 182.225C69.8512 182.43 54.9599 182.43 54.1412 182.225C49.8171 181.125 55.2925 172.042 58.107 171.3Z" fill="#C2E4E3"/>
<path d="M78.9604 172.298C84.5126 171.837 85.3314 181.202 80.2909 182.225C72.8964 183.709 73.6896 172.733 78.9604 172.298Z" fill="#A4D8D8"/>
<path d="M198.781 8.7749C207.48 6.54888 205.433 21.6704 197.783 17.3719C194.405 15.4785 195.787 9.54249 198.781 8.7749Z" fill="#D8D5AF"/>
<path d="M64.7332 33.2864C66.3452 33.0817 65.987 36.8173 65.2194 37.764C65.8846 38.9666 66.9336 37.2779 67.7012 37.6105C69.7737 40.3994 66.4731 40.4506 66.2172 41.0903C65.7823 42.1649 67.9827 42.5231 67.2151 43.7257C66.0637 45.0306 64.8612 43.3674 64.4006 43.5721C64.068 43.7001 62.4816 50.4293 61.4326 42.9069C57.262 44.57 57.7226 41.1926 61.2791 40.0924C57.0317 37.4058 58.311 34.1819 62.4305 37.9431C63.2236 37.8152 63.5818 33.4399 64.7588 33.312L64.7332 33.2864Z" fill="#A4D8D8"/>
<path d="M40.2218 46.5152C42.1408 46.1314 47.1045 46.2081 48.0001 48.3318C50.4563 54.1143 37.6888 53.0909 37.0747 50.9672C36.5885 49.3041 38.3028 46.8734 40.2218 46.4896V46.5152Z" fill="#EAF5F8"/>
<path d="M255.71 57.1072C262.515 56.314 266.021 65.2692 259.675 67.3673C250.848 70.2842 247.343 58.0795 255.71 57.1072Z" fill="#C2E4E3"/>
<path d="M237.671 74.3265C240.639 73.4566 239.155 71.7679 239.667 70.6932C240.409 69.0557 246.78 70.77 248.443 71.0259C248.776 71.077 249.876 70.4118 250.771 70.6932C253.202 71.4352 251.155 75.8873 249.441 76.3222C248.162 76.6549 236.801 77.0642 237.697 74.3265H237.671Z" fill="#F6EFCE"/>
<path d="M239.667 70.6933C239.181 71.7935 240.639 73.4566 237.671 74.3265C236.571 74.6592 228.691 74.3777 228.409 73.5078C228.486 66.9577 235.906 68.0835 239.667 70.6933Z" fill="#C2E4E3"/>
<path d="M294.78 103.445C300.051 102.012 301.868 109.202 297.748 110.737C292.298 112.758 290.303 104.673 294.78 103.445Z" fill="#C2E4E3"/>
<path d="M216.665 8.44265C223.113 6.42133 224.341 11.948 219.633 14.7369C212.801 18.8051 214.004 9.287 216.665 8.44265Z" fill="#EAF5F8"/>
<path d="M272.93 160.707C273.518 160.528 277.791 160.528 278.073 161.193C277.382 164.468 274.951 169.253 270.96 167.641C268.913 166.822 271.267 161.167 272.955 160.681L272.93 160.707Z" fill="#C2E4E3"/>
<path d="M18.3961 71.9982C22.8482 76.9876 27.1211 83.1283 34.1317 84.4076C30.6264 92.0324 21.5177 95.5121 14.4302 90.5228C12.5369 89.1923 8.21276 83.2562 8.64773 81.0814C8.80125 80.3394 17.2447 73.2008 18.4217 71.9727L18.3961 71.9982Z" fill="#F7E3EB"/>
<path d="M27.6581 48.1778C35.9481 47.1287 36.8948 59.2055 29.9865 60.4336C21.0057 61.9944 20.2381 49.1245 27.6581 48.1778Z" fill="#A4D8D8"/>
<path d="M32.2897 64.0673C38.3537 62.6601 38.3793 72.1014 32.2897 70.6942C29.1938 69.9778 29.1938 64.7837 32.2897 64.0673Z" fill="#F8DAC6"/>
<path d="M48.5113 147.811C49.0742 147.709 49.33 147.888 49.6627 148.298C47.846 151.828 55.2149 150.217 51.8119 152.775C50.4047 153.824 50.2512 151.624 49.8162 156.076C48.4857 156.511 48.4345 154.234 48.1531 154.08C47.9484 153.978 44.443 156.715 44.6733 154.234C44.6989 153.927 46.5155 152.826 46.3364 152.238C46.1573 151.649 44.1616 151.573 44.0081 150.907C43.5987 149.014 47.3087 150.549 47.4878 150.421C47.7949 150.165 47.3855 147.991 48.4857 147.786L48.5113 147.811Z" fill="#D5778F"/>
<path d="M257.705 133.585C258.14 133.509 260.776 134.302 261.671 133.918C262.081 137.807 258.78 141.159 254.891 139.061C254.328 137.372 255.914 133.918 257.705 133.611V133.585Z" fill="#EAF5F8"/>
<path d="M248.111 148.144C248.648 147.965 252.358 148.067 252.588 148.63C252.767 149.116 250.183 154.259 249.774 154.413C244.298 156.511 245.936 148.809 248.111 148.118V148.144Z" fill="#DDEFEE"/>
<path d="M57.7742 6.47206C61.1004 6.06268 64.6569 9.15863 63.5567 12.5872C63.0962 12.9454 52.6825 13.278 52.1452 13.0733C49.5354 12.2034 55.0876 6.7791 57.7742 6.44648V6.47206Z" fill="#C2E4E3"/>
<path d="M21.3646 27.9902C22.1066 27.8879 33.339 27.7856 33.9531 27.9902C36.0768 28.7067 34.4393 31.8538 32.9552 32.6214C30.6013 33.8495 17.9361 34.5148 18.2175 30.4721C18.2687 29.551 20.5203 28.1182 21.3646 27.9902Z" fill="#F6EFCE"/>
<path d="M23.6931 19.0351C25.1003 18.728 33.3903 19.4189 33.4671 20.5191C30.8061 25.6875 25.2027 23.5894 20.3924 23.9988C18.5246 23.2056 22.3882 19.3165 23.6931 19.0351Z" fill="#EAF5F8"/>
<path d="M42.8833 27.3252C42.8833 27.3252 44.137 27.9904 44.2138 27.9904C45.7234 27.9904 52.0944 27.5555 51.6594 29.4744C51.2244 31.3934 42.0133 31.4446 40.9131 30.9585C39.2244 30.2165 41.3993 27.5555 42.9089 27.3252H42.8833Z" fill="#F6EFCE"/>
<path d="M5.80852 22.6941C7.65074 22.208 12.3842 22.4894 11.9237 25.176C9.18592 30.2677 -0.178683 24.3061 5.80852 22.6941Z" fill="#F6EFCE"/>
<path d="M242.482 83.5898C244.938 83.6922 242.789 85.7903 242.968 86.737C243.07 87.2231 245.347 88.4257 244.963 89.3724C244.042 90.8564 242.507 88.8351 242.149 88.8862C241.381 88.9886 240.844 92.2892 239.334 90.0376C240.818 87.0952 239.232 88.093 238.004 86.0717C240.716 85.0994 240.818 86.6346 242.482 83.5898Z" fill="#D5778F"/>
<path d="M11.2576 142.515C10.925 142.054 10.4133 140.007 10.2598 139.879C11.8461 138.958 18.9335 132.715 20.0338 132.92C24.9975 137.321 29.8077 141.901 36.0764 144.331C29.2448 152.263 17.0657 150.754 11.2576 142.515Z" fill="#C2E4E3"/>
<path d="M19.7009 105.44C29.1167 104.391 30.4728 118.49 21.3641 119.334C11.7692 120.229 11.1039 106.387 19.7009 105.44Z" fill="#A4D8D8"/>
<path d="M14.7375 123.632C16.2982 123.197 24.3835 123.427 25.1767 124.783C28.2471 130.182 14.4304 129.901 12.4347 128.928C10.9507 128.212 13.4326 123.99 14.7631 123.632H14.7375Z" fill="#F6EFCE"/>
<path d="M10.2855 139.854C10.4135 139.982 10.9508 142.055 11.2834 142.49C9.9785 141.927 9.26208 143.692 8.80153 143.82C1.07445 145.611 6.83138 136.605 10.2855 139.854Z" fill="#F6EFCE"/>
<path d="M23.0279 155.103C26.7891 154.438 26.917 161.27 22.6953 160.067C20.6228 159.479 20.8275 155.487 23.0279 155.103Z" fill="#C2E4E3"/>
<path d="M47.5135 73.3295C47.8717 73.3807 47.9997 74.225 48.1788 74.3274C48.4602 74.4809 49.3302 74.0971 49.6628 74.4809C50.1745 75.095 48.7161 75.5043 48.6649 75.8114C48.6137 76.0672 50.9933 78.6259 48.5114 78.2933C47.2065 78.1141 48.3323 75.7602 45.876 79.6237C44.392 77.7304 47.3344 75.9905 44.7246 74.4809C45.7992 74.5321 47.3856 73.3039 47.5391 73.3295H47.5135Z" fill="#A4D8D8"/>
<path d="M177.262 9.10765C177.774 9.08207 177.62 11.1801 179.258 9.7729C180.691 10.7708 178.49 11.3848 178.439 11.5895C178.183 12.4595 179.36 12.6897 179.104 13.5853C179.028 13.8667 176.802 14.0458 176.29 15.0693C176.29 12.4595 173.936 13.3038 175.625 10.4381C177.646 12.0501 176.264 9.15883 177.288 9.10765H177.262Z" fill="#D5778F"/>
<path d="M44.5455 87.2228C44.4176 90.6002 46.0551 88.1695 46.6947 89.0395C44.0849 91.5981 47.5135 91.3422 45.2107 93.5171C43.2918 91.3422 43.5476 92.8263 42.5753 92.8518C39.8632 92.903 43.0103 91.1887 43.0615 91.0352C43.3429 90.37 42.4986 89.4744 42.7289 89.0395C43.0103 88.4766 43.5476 89.2442 43.5476 89.193C43.8802 88.5789 43.5476 87.7346 44.5455 87.1973V87.2228Z" fill="#D5778F"/>
<path d="M214.669 35.9219C216.076 36.6383 215.181 38.1735 215.488 39.069C215.795 39.9645 217.407 38.5573 217.484 40.0669C216.153 40.118 215.181 42.4976 215.002 42.5487C214.362 42.7278 214.004 41.0136 213.339 42.8814C213.441 41.5765 212.52 40.553 212.52 40.3995C212.443 39.7598 213.697 40.3483 213.85 40.0669C214.234 39.3504 213.927 36.0498 214.669 35.9219Z" fill="#D5778F"/>
<path d="M41.8846 104.775C42.1149 104.749 43.9059 105.491 45.0317 104.929C44.6223 108.536 47.2321 106.489 43.8803 109.739C42.6522 107.794 42.7801 109.15 41.3984 108.587C42.2428 107.871 41.3984 104.852 41.8846 104.775Z" fill="#D5778F"/>
<path d="M47.1814 132.92C48.7422 133.125 47.3349 134.327 47.6676 135.069C47.8723 135.504 49.5865 136.016 49.3307 136.732C49.1516 137.218 46.2859 137.014 45.5183 138.216C45.288 134.634 43.9831 135.274 47.1814 132.92Z" fill="#D5778F"/>
<path d="M240.818 99.8113C241.125 99.7601 241.816 102.293 243.965 101.295C242.507 101.833 242.916 104.749 242.481 104.775C242.354 104.775 241.637 103.777 241.484 103.777C241.356 103.777 240.588 104.801 240.486 104.775C239.513 104.596 241.023 102.319 238.669 102.626C238.413 101.193 239.897 102.14 240.332 101.628C240.435 101.526 240.102 99.9137 240.818 99.8113Z" fill="#A4D8D8"/>
<path d="M228.896 54.1396C229.382 54.1396 229.331 55.2654 229.561 55.4701C229.663 55.5469 230.84 55.2655 231.045 55.9563C231.045 56.0075 230.38 56.8774 230.38 56.9541C230.456 57.952 231.608 58.1823 230.226 59.1034C229.817 57.6962 227.923 59.6151 227.744 58.6173C227.668 58.1567 228.435 57.3635 228.41 57.2868C228.051 56.1354 225.979 55.419 227.258 54.4723C228.87 56.5448 228.205 54.1396 228.921 54.1396H228.896Z" fill="#A4D8D8"/>
<path d="M221.962 45.8496C222.678 49.4829 224.52 49.0735 220.631 51.4786C220.861 48.9456 219.94 50.2505 219.48 49.662C219.019 49.0735 221.348 48.5873 219.48 47.0266C220.785 46.3357 220.887 48.0756 221.962 45.8752V45.8496Z" fill="#A4D8D8"/>
<path d="M237.186 139.214C237.723 139.291 237.595 140.34 237.851 140.544C237.902 140.57 239.028 139.802 239.003 140.698C239.003 141.107 236.802 141.286 239.003 143.333L236.853 144.152L234.704 141.005C236.239 141.542 236.777 139.137 237.186 139.188V139.214Z" fill="#A4D8D8"/>
<path d="M58.772 52.4766L60.9213 55.9563C58.465 55.854 60.0002 57.1333 58.4394 57.7729C58.1324 56.9542 56.1367 54.8049 56.6228 53.9606C56.9042 53.4744 58.6953 55.6493 58.772 52.4766Z" fill="#A4D8D8"/>
<path d="M204.742 34.5918C206.328 34.5918 205.023 37.3295 206.737 34.9244C208.938 37.8157 206.482 36.4084 206.072 39.2229C202.285 37.5342 204.409 37.7645 204.742 34.5918Z" fill="#D5778F"/>
<path d="M186.55 15.7344L189.032 17.551L187.215 20.0329C184.529 18.0627 185.322 18.3442 186.55 15.7344Z" fill="#D5778F"/>
<path d="M196.81 27.6582C196.81 27.6582 198.806 28.1955 199.292 28.1443C197.706 29.2701 198.268 29.6284 198.141 31.2915C196.222 31.1635 195.787 28.7072 196.81 27.6582Z" fill="#D5778F"/>
<path d="M226.081 108.407C225.211 129.004 218.379 146.838 204.895 162.369L183.71 143.512C191.591 134.429 197.424 120.51 197.603 108.433H226.081V108.407Z" fill="#D8D5AF"/>
<path d="M212.52 99.8105C213.313 99.8105 215.821 100.706 217.151 100.808C217.765 100.834 218.405 100.783 218.814 100.808C220.733 100.936 224.546 101.934 226.106 100.476C226.234 103.086 226.209 105.798 226.106 108.408H197.629C197.654 106.309 196.656 103.93 197.629 101.781C198.473 104.083 198.703 102.804 200.929 103.111C201.722 103.214 202.055 102.753 202.26 102.779C202.311 102.779 202.899 103.418 203.079 103.444C212.597 104.007 207.403 103.495 209.859 100.297C210.14 99.9129 210.857 100.271 211.189 100.143C211.241 100.118 212.418 99.8105 212.52 99.8105Z" fill="#F6EFCE"/>
<path d="M204.921 162.369C203.744 163.725 202.49 164.774 201.287 166.002C195.582 160.399 187.88 155.154 182.763 149.115C182.021 148.245 181.305 147.401 180.435 146.633C180.895 144.587 183.326 143.972 183.735 143.486L204.921 162.343V162.369Z" fill="#F8F2F2"/>
<path d="M182.737 149.142C187.88 155.18 195.556 160.425 201.262 166.029C181.228 186.37 154.823 195.095 126.294 190.847C86.3536 184.911 53.424 147.504 55.1383 106.771H82.618C83.36 107.103 83.795 115.368 84.102 116.877C92.9293 157.406 138.652 175.802 173.296 152.468C174.473 151.675 179.488 146.839 179.923 146.839C180.256 146.839 181.842 149.321 182.737 149.167V149.142Z" fill="#A4D8D8"/>
<path d="M62.4043 107.769C63.7604 112.835 63.6836 118.515 64.8862 123.811C76.5792 175.598 138.012 199.138 182.558 170.66C184.17 169.637 191.871 162.907 192.485 163.035C192.69 163.086 193.023 163.573 192.971 163.854C192.869 164.647 183.556 171.453 182.225 172.298C153.236 190.438 114.728 187.726 88.8862 165.338C73.0227 151.624 61.1506 129.057 62.4043 107.743V107.769Z" fill="#EAF5F8"/>
<path d="M68.6993 107.769C69.4157 107.769 70.4904 120.153 70.8486 121.841C81.9786 174.089 148.58 194.609 187.855 158.737L188.674 159.556C162.294 183.325 121.663 184.374 94.1833 161.705C78.9339 149.142 67.2921 127.828 68.6993 107.743V107.769Z" fill="#EAF5F8"/>
<path d="M73.9957 107.769C74.5841 107.743 74.7121 108.101 74.8144 108.588C75.4541 111.197 75.1726 116.084 75.8123 119.18C85.3304 166.029 139.266 185.807 178.593 159.402C179.309 158.916 185.245 153.133 185.04 155.59C184.989 156.101 177.953 161.398 176.93 162.037C151.804 178.234 118.183 175.803 95.8208 156.076C82.6438 144.46 72.921 125.577 73.9701 107.743L73.9957 107.769Z" fill="#EAF5F8"/>
<path d="M79.2913 107.769C80.4683 107.462 80.2636 114.063 80.4427 115.214C87.2999 157.56 134.43 179.513 171.632 157.739C173.219 156.818 180.025 151.24 180.562 151.112C184.426 150.344 175.24 156.971 174.601 157.406C152.852 171.735 123.479 170.66 102.78 155.078C88.7327 144.511 78.012 125.628 79.2657 107.743L79.2913 107.769Z" fill="#EAF5F8"/>
<path d="M132.255 20.6979C133.074 20.6724 136.375 20.4165 136.733 21.1841V48.6638C136.477 49.2267 126.396 50.6596 124.656 51.1457C102.191 57.4655 84.9461 77.6532 83.283 101.116L55.138 101.448C54.9845 91.6745 57.7222 80.8515 61.5857 71.8195C72.8693 45.5167 102.959 21.6446 132.255 20.6724V20.6979Z" fill="url(#paint1_linear_1466_4598)"/>
<path d="M226.08 100.476C224.52 101.935 220.733 100.937 218.788 100.809C217.56 72.3567 198.345 45.3887 172.272 34.2842C166.08 31.6488 155.104 28.4505 148.451 28.3226C147.735 28.3226 142.976 28.4505 145.816 29.6531C146.43 29.9089 153.134 30.0113 154.746 30.3183C188.417 36.4079 216.562 66.1392 217.151 100.834C215.82 100.758 213.313 99.862 212.52 99.8365C210.959 74.1733 193.279 49.8151 169.663 39.9132C166.183 38.4548 148.042 33.1584 145.509 34.6168C145.074 34.8727 145.407 35.7682 145.842 35.9473C146.686 36.3055 155.181 36.7661 157.432 37.2778C186.396 43.8279 209.68 70.3098 211.215 100.169C210.908 100.297 210.191 99.9644 209.884 100.323C207.402 103.521 212.622 104.033 203.104 103.47C202.925 103.47 202.336 102.804 202.285 102.804C201.646 80.2373 186.447 58.5657 165.697 49.8407C162.985 48.6893 147.249 44.0582 145.509 45.2096C145.228 45.3887 145.228 46.361 145.509 46.5401C145.995 46.8727 155.027 47.6659 157.1 48.2032C181.356 54.4207 200.596 77.9857 200.955 103.163C198.729 102.856 198.473 104.135 197.654 101.832C197.04 100.092 197.142 96.4591 196.656 94.3866C191.309 71.7938 174.473 55.2138 151.803 50.1989C150.319 49.8663 142.362 49.4313 142.029 48.7149L142.183 20.749C186.422 20.8514 223.931 56.2373 226.08 100.527V100.476Z" fill="#F5D3AE"/>
<path d="M218.814 100.809C218.405 100.783 217.765 100.834 217.151 100.809C216.588 66.1135 188.443 36.4077 154.746 30.2926C153.134 30.0112 146.431 29.8832 145.816 29.6274C142.976 28.4248 147.735 28.2969 148.452 28.2969C155.13 28.4248 166.081 31.5975 172.273 34.2585C198.345 45.3886 217.561 72.331 218.789 100.783L218.814 100.809Z" fill="#F7EDE2"/>
<path d="M212.52 99.811C212.52 99.811 211.266 100.118 211.189 100.144C209.654 70.2843 186.345 43.8025 157.407 37.2524C155.155 36.7406 146.66 36.2801 145.816 35.9219C145.407 35.7428 145.048 34.8473 145.483 34.5914C148.016 33.133 166.183 38.4293 169.637 39.8878C193.253 49.7641 210.933 74.1223 212.494 99.811H212.52Z" fill="#F7EDE2"/>
<path d="M145.483 39.8877C145.918 39.5807 154.797 40.9368 156.076 41.2182C180.178 46.3099 207.019 72.3312 207.223 97.9943C207.223 99.5551 207.223 100.297 206.072 101.474C204.511 72.715 182.788 48.1777 154.771 42.2161C153.287 41.9091 145.893 41.4741 145.509 41.2182C145.227 41.0391 145.227 40.0668 145.509 39.8877H145.483Z" fill="#F8F2F2"/>
<path d="M202.26 102.779C202.055 102.779 201.722 103.214 200.929 103.111C200.545 77.9599 181.304 54.3692 157.074 48.1517C155.002 47.6144 145.97 46.8213 145.484 46.4886C145.202 46.3095 145.202 45.3372 145.484 45.1581C147.249 44.0068 162.959 48.6635 165.671 49.7893C186.396 58.5142 201.62 80.1859 202.26 102.753V102.779Z" fill="#F7EDE2"/>
<path d="M138.55 58.1048C153.364 55.9044 162.959 71.7424 164.852 84.4076C168.255 107.128 163.138 151.111 132.588 150.446C119.155 150.165 119.667 134.301 122.149 124.143C124.451 114.779 135.198 110.378 143.155 115.367C144.741 114.395 146.046 102.702 145.97 100.629C145.663 90.9577 138.729 96.4844 132.895 91.8533C124.349 85.0729 126.268 59.9215 138.524 58.0793L138.55 58.1048Z" fill="#F7E3EB"/>
<path d="M139.522 62.4034C144.511 61.4567 152.213 66.3437 155.257 70.1816C165.927 83.7424 161.654 125.295 150.626 138.369C145.995 143.845 132.511 150.548 127.445 143C123.991 137.832 125.603 119.282 134.225 118.003C138.908 117.312 145.176 121.508 146.149 121.303C149.987 120.51 152.699 93.3373 149.628 89.3714C147.812 87.6059 138.089 92.7232 134.072 85.7381C131.411 81.107 132.588 63.7083 139.522 62.4034Z" fill="#88C5C3"/>
<path d="M39.0705 170.66C37.433 170.276 37.1515 167.641 33.288 167.692C30.013 167.717 29.7827 171.018 26.8402 170.66C25.6889 167.257 31.0876 161.653 33.9533 161.065C34.8232 160.886 45.2112 160.86 45.8765 161.065C48.5119 161.884 48.7933 169.764 45.2112 170.66C44.7507 170.788 39.5822 170.788 39.0961 170.66H39.0705Z" fill="#EAF5F8"/>
<path d="M39.0703 170.66C40.1194 174.805 33.0831 175.009 30.6268 174.293C29.2963 173.909 29.9872 171.35 28.9637 170.992C28.0938 170.685 27.2494 171.965 26.8145 170.66C29.7569 170.992 30.0127 167.717 33.2622 167.692C37.1513 167.666 37.4072 170.276 39.0447 170.66H39.0703Z" fill="#C2E4E3"/>
<path d="M30.9593 175.291C34.695 175.266 36.9977 175.061 40.2216 177.287C41.7824 178.362 44.5201 182.763 44.8527 182.916C45.5692 183.274 47.7184 182.481 48.6651 184.4C50.9423 189.057 45.39 189.287 42.55 189.543C39.3517 189.799 20.0851 189.876 18.3964 188.878C13.8165 186.217 17.3474 177.671 21.6971 176.289C23.1043 175.854 29.3218 175.317 30.9593 175.291Z" fill="#EAF5F8"/>
<path d="M23.6926 180.921C24.6393 180.639 28.3749 182.891 27.8376 184.068C26.7374 186.447 20.5966 181.842 23.6926 180.921Z" fill="#F6EFCE"/>
<path d="M44.8786 118.361C48.8956 117.875 47.4628 125.576 44.2133 124.988C43.676 124.885 41.7314 121.175 41.7314 120.843C41.7314 120.28 44.5459 118.412 44.8786 118.361Z" fill="#D5778F"/>
<path d="M45.1853 119.998C45.825 119.998 46.5926 122.199 45.518 122.634C43.7525 123.376 44.0084 119.973 45.1853 119.998Z" fill="#F8F2F2"/>
<path d="M2.17444 97.1762C2.37913 97.0995 5.14246 97.2274 5.65418 97.6624C8.95482 100.605 3.14672 106.49 0.69043 98.9929C0.69043 98.8649 2.07209 97.2274 2.17444 97.1762Z" fill="#88C5C3"/>
<path d="M3.81206 98.8134C4.55406 98.1737 5.47517 100.579 4.80993 101.142C3.93999 101.884 3.12123 99.4274 3.81206 98.8134Z" fill="#EAF5F8"/>
<path d="M58.7714 156.741C62.6605 155.973 63.8375 160.246 61.4068 161.372C59.2064 162.396 54.6264 157.534 58.7714 156.741Z" fill="#D5778F"/>
<path d="M59.7693 158.071C61.0998 157.918 61.8162 159.657 60.7672 160.067C59.4879 160.553 58.3621 158.225 59.7693 158.071Z" fill="#F7EDE2"/>
<path d="M257.04 90.8815C258.703 90.8815 259.829 90.5489 260.853 92.0329C261.288 94.7194 259.522 94.5147 257.705 95.5126L256.887 95.0265C258.32 93.7216 256.221 92.5958 257.04 90.8815Z" fill="#D5778F"/>
<path d="M259.036 91.8793C259.215 91.777 259.906 92.954 259.368 93.2098C258.754 93.4913 258.678 92.084 259.036 91.8793Z" fill="#F7EDE2"/>
<path d="M49.8422 61.4064C52.2985 60.9458 53.2964 64.5791 51.8379 65.3723C49.0234 66.9075 46.3369 62.0461 49.8422 61.4064Z" fill="#A4D8D8"/>
<path d="M50.4816 62.7367C51.5562 62.6599 51.5562 64.5022 50.8142 64.7324C49.9699 64.9883 49.2023 62.8391 50.4816 62.7367Z" fill="#EAF5F8"/>
<defs>
<linearGradient id="paint0_linear_1466_4598" x1="230.866" y1="178.489" x2="287.13" y2="189.261" gradientUnits="userSpaceOnUse">
<stop stop-color="#F8E4C9"/>
<stop offset="1" stop-color="#F7F4DA"/>
</linearGradient>
<linearGradient id="paint1_linear_1466_4598" x1="133.202" y1="24.0498" x2="57.3384" y2="96.5359" gradientUnits="userSpaceOnUse">
<stop stop-color="#F5C2CF"/>
<stop offset="1" stop-color="#EDA3B1"/>
</linearGradient>
</defs>
</svg>
