<svg width="54" height="54" viewBox="0 0 54 54" fill="none" xmlns="http://www.w3.org/2000/svg">
<path d="M27 15.8899V38.1132" stroke="#2F87FF" stroke-width="3" stroke-linecap="round" stroke-linejoin="round"/>
<path d="M38.1169 27H15.8936" stroke="#2F87FF" stroke-width="3" stroke-linecap="round" stroke-linejoin="round"/>
<path d="M27 52C22.0555 52 17.222 50.5338 13.1108 47.7867C8.99953 45.0397 5.79521 41.1352 3.90302 36.5671C2.01083 31.9989 1.51575 26.9723 2.48038 22.1227C3.44501 17.2732 5.82603 12.8187 9.32234 9.32234C12.8187 5.82603 17.2732 3.44501 22.1227 2.48038C26.9723 1.51575 31.9989 2.01083 36.5671 3.90302C41.1352 5.79521 45.0397 8.99953 47.7867 13.1108C50.5338 17.222 52 22.0555 52 27C52 33.6304 49.3661 39.9893 44.6777 44.6777C39.9893 49.3661 33.6304 52 27 52Z" stroke="#2F87FF" stroke-width="3" stroke-linecap="round" stroke-linejoin="round"/>
</svg>
