<svg width="55" height="55" viewBox="0 0 55 55" fill="none" xmlns="http://www.w3.org/2000/svg">
    <rect width="55" height="55" rx="27.5" fill="#2F87FF"/>
    <path d="M29.98 33.94C30.24 33.94 30.53 33.89 30.85 33.79C31.17 33.69 31.51 33.54 31.87 33.34L32.89 35.89C32.49 36.29 31.9 36.64 31.12 36.94C30.34 37.24 29.54 37.39 28.72 37.39C27.24 37.39 26.21 37.04 25.63 36.34C25.05 35.62 24.76 34.63 24.76 33.37V25.51H23.2V22.18H29.14V32.95C29.14 33.33 29.21 33.59 29.35 33.73C29.49 33.87 29.7 33.94 29.98 33.94ZM29.14 19.63H24.46V15.34H29.14V19.63Z" fill="#FBFCFE"/>
    </svg>
    