<svg width="30" height="30" viewBox="0 0 30 30" fill="none" xmlns="http://www.w3.org/2000/svg">
    <path
        d="M29.5 15C29.5 6.99187 23.0081 0.5 15 0.5C6.99187 0.5 0.5 6.99187 0.5 15C0.5 23.0081 6.99187 29.5 15 29.5C23.0081 29.5 29.5 23.0081 29.5 15Z"
        stroke="#E8EAED" />
    <path
        d="M21.1057 18.4187C21.9332 16.9423 22.1984 15.2163 21.8523 13.5595C21.5063 11.9028 20.5723 10.4272 19.223 9.40547C17.8737 8.38372 16.2003 7.88481 14.5117 8.00089C12.8232 8.11697 11.2338 8.8402 10.037 10.037C8.8402 11.2338 8.11697 12.8232 8.00089 14.5117C7.88481 16.2003 8.38372 17.8737 9.40547 19.223C10.4272 20.5723 11.9028 21.5063 13.5595 21.8523C15.2163 22.1984 16.9423 21.9332 18.4187 21.1057L21.9997 22.0057L21.1057 18.4187Z"
        stroke="#323232" stroke-width="1.588" stroke-linecap="round" stroke-linejoin="round" />
    <path
        d="M14.8618 15.2509C14.8891 15.2235 14.9238 15.2048 14.9617 15.1972C14.9995 15.1896 15.0388 15.1934 15.0745 15.2081C15.1102 15.2228 15.1407 15.2478 15.1622 15.2799C15.1836 15.312 15.1951 15.3497 15.1951 15.3884C15.1951 15.427 15.1836 15.4647 15.1622 15.4968C15.1407 15.5289 15.1102 15.5539 15.0745 15.5686C15.0388 15.5833 14.9995 15.5871 14.9617 15.5795C14.9238 15.5719 14.8891 15.5532 14.8618 15.5259C14.8437 15.5078 14.8293 15.4864 14.8195 15.4628C14.8097 15.4392 14.8047 15.4139 14.8047 15.3884C14.8047 15.3628 14.8097 15.3375 14.8195 15.3139C14.8293 15.2903 14.8437 15.2689 14.8618 15.2509Z"
        stroke="#FF7401" stroke-width="1.5" stroke-linecap="round" stroke-linejoin="round" />
    <path
        d="M11.7525 15.2509C11.7797 15.2235 11.8144 15.2048 11.8523 15.1972C11.8901 15.1896 11.9294 15.1934 11.9651 15.2081C12.0008 15.2228 12.0313 15.2478 12.0528 15.2799C12.0743 15.312 12.0857 15.3497 12.0857 15.3884C12.0857 15.427 12.0743 15.4647 12.0528 15.4968C12.0313 15.5289 12.0008 15.5539 11.9651 15.5686C11.9294 15.5833 11.8901 15.5871 11.8523 15.5795C11.8144 15.5719 11.7797 15.5532 11.7525 15.5259C11.7343 15.5078 11.72 15.4864 11.7102 15.4628C11.7004 15.4392 11.6953 15.4139 11.6953 15.3884C11.6953 15.3628 11.7004 15.3375 11.7102 15.3139C11.72 15.2903 11.7343 15.2689 11.7525 15.2509Z"
        stroke="#FF7401" stroke-width="1.5" stroke-linecap="round" stroke-linejoin="round" />
    <path
        d="M17.9712 15.2509C17.9984 15.2235 18.0332 15.2048 18.071 15.1972C18.1089 15.1896 18.1482 15.1934 18.1838 15.2081C18.2195 15.2228 18.2501 15.2478 18.2715 15.2799C18.293 15.312 18.3045 15.3497 18.3045 15.3884C18.3045 15.427 18.293 15.4647 18.2715 15.4968C18.2501 15.5289 18.2195 15.5539 18.1838 15.5686C18.1482 15.5833 18.1089 15.5871 18.071 15.5795C18.0332 15.5719 17.9984 15.5532 17.9712 15.5259C17.9531 15.5078 17.9387 15.4864 17.9289 15.4628C17.9191 15.4392 17.9141 15.4139 17.9141 15.3884C17.9141 15.3628 17.9191 15.3375 17.9289 15.3139C17.9387 15.2903 17.9531 15.2689 17.9712 15.2509Z"
        stroke="#FF7401" stroke-width="1.5" stroke-linecap="round" stroke-linejoin="round" />
</svg>
    