<svg width="20" height="20" viewBox="0 0 20 20" fill="none" xmlns="http://www.w3.org/2000/svg">
<path d="M8.27871 12.8619L12.8627 8.27889C12.9292 8.21265 12.9819 8.13395 13.0179 8.04729C13.0539 7.96063 13.0724 7.86772 13.0724 7.77389C13.0724 7.68006 13.0539 7.58715 13.0179 7.50049C12.9819 7.41383 12.9292 7.33513 12.8627 7.26889L11.7297 6.13789C11.6635 6.07143 11.5848 6.0187 11.4981 5.98272C11.4115 5.94674 11.3185 5.92822 11.2247 5.92822C11.1309 5.92822 11.038 5.94674 10.9513 5.98272C10.8647 6.0187 10.7859 6.07143 10.7197 6.13789L6.13771 10.7199C6.00504 10.8526 5.92996 11.0322 5.92871 11.2199V13.0719H7.77871C7.96651 13.0704 8.14615 12.9949 8.27871 12.8619Z" stroke="#717274" stroke-width="1.5" stroke-linecap="round" stroke-linejoin="round"/>
<path d="M10.9287 13.0718H13.0717" stroke="#717274" stroke-width="1.5" stroke-linecap="round" stroke-linejoin="round"/>
<circle cx="10" cy="10" r="10" fill="#F0F3F8"/>
<path d="M6.58301 12.6083V13.875C6.58301 13.9917 6.67467 14.0833 6.79134 14.0833H8.05801C8.11217 14.0833 8.16634 14.0625 8.20384 14.0208L12.7538 9.47498L11.1913 7.91248L6.64551 12.4583C6.60384 12.5 6.58301 12.55 6.58301 12.6083ZM13.9622 8.26665C14.1247 8.10415 14.1247 7.84165 13.9622 7.67915L12.9872 6.70415C12.8247 6.54165 12.5622 6.54165 12.3997 6.70415L11.6372 7.46665L13.1997 9.02915L13.9622 8.26665Z" fill="#5E6160"/>
</svg>
