<svg width="55" height="55" viewBox="0 0 55 55" fill="none" xmlns="http://www.w3.org/2000/svg">
<path d="M27.5 55C42.6878 55 55 42.6878 55 27.5C55 12.3122 42.6878 0 27.5 0C12.3122 0 0 12.3122 0 27.5C0 42.6878 12.3122 55 27.5 55Z" fill="#E8EAED"/>
<path fill-rule="evenodd" clip-rule="evenodd" d="M21.0417 19C20.4664 19 20 19.5597 20 20.25V35.25C20 35.9404 20.4664 36.5 21.0417 36.5C21.617 36.5 22.0833 35.9404 22.0833 35.25V20.25C22.0833 19.5597 21.617 19 21.0417 19ZM31.7634 30.6161C31.3567 31.1042 31.3567 31.8958 31.7634 32.3839C32.1702 32.872 32.8298 32.872 33.2366 32.3839L36.3616 28.6339C36.5569 28.3995 36.6667 28.0815 36.6667 27.75C36.6667 27.4185 36.5569 27.1005 36.3616 26.8661L33.2366 23.1161C32.8298 22.628 32.1702 22.628 31.7634 23.1161C31.3567 23.6043 31.3567 24.3957 31.7634 24.8839L33.1102 26.5H25.2083C24.633 26.5 24.1667 27.0597 24.1667 27.75C24.1667 28.4404 24.633 29 25.2083 29H33.1102L31.7634 30.6161Z" fill="white"/>
</svg>
