<svg width="30" height="31" viewBox="0 0 30 31" fill="none" xmlns="http://www.w3.org/2000/svg">
<mask id="mask0_1211_3989" style="mask-type:luminance" maskUnits="userSpaceOnUse" x="0" y="0" width="30" height="31">
<path d="M30 15.373C30 7.08878 23.2843 0.373047 15 0.373047C6.71573 0.373047 0 7.08878 0 15.373C0 23.6573 6.71573 30.373 15 30.373C23.2843 30.373 30 23.6573 30 15.373Z" fill="white"/>
</mask>
<g mask="url(#mask0_1211_3989)">
<path d="M30 15.373C30 7.08878 23.2843 0.373047 15 0.373047C6.71573 0.373047 0 7.08878 0 15.373C0 23.6573 6.71573 30.373 15 30.373C23.2843 30.373 30 23.6573 30 15.373Z" fill="#FFD9DB"/>
<path d="M15 20.373C17.7614 20.373 20 18.1345 20 15.373C20 12.6116 17.7614 10.373 15 10.373C12.2386 10.373 10 12.6116 10 15.373C10 18.1345 12.2386 20.373 15 20.373Z" fill="#FF2C65"/>
</g>
</svg>
